<?xml version="1.0" encoding="utf-8" standalone="no"?>
<!DOCTYPE svg PUBLIC "-//W3C//DTD SVG 1.1//EN"
  "http://www.w3.org/Graphics/SVG/1.1/DTD/svg11.dtd">
<svg xmlns:xlink="http://www.w3.org/1999/xlink" width="547.160242pt" height="403.507787pt" viewBox="0 0 547.160242 403.507787" xmlns="http://www.w3.org/2000/svg" version="1.1">
 <metadata>
  <rdf:RDF xmlns:dc="http://purl.org/dc/elements/1.1/" xmlns:cc="http://creativecommons.org/ns#" xmlns:rdf="http://www.w3.org/1999/02/22-rdf-syntax-ns#">
   <cc:Work>
    <dc:type rdf:resource="http://purl.org/dc/dcmitype/StillImage"/>
    <dc:date>2025-04-05T21:12:43.585002</dc:date>
    <dc:format>image/svg+xml</dc:format>
    <dc:creator>
     <cc:Agent>
      <dc:title>Matplotlib v3.10.0, https://matplotlib.org/</dc:title>
     </cc:Agent>
    </dc:creator>
   </cc:Work>
  </rdf:RDF>
 </metadata>
 <defs>
  <style type="text/css">*{stroke-linejoin: round; stroke-linecap: butt}</style>
 </defs>
 <g id="figure_1">
  <g id="patch_1">
   <path d="M 0 403.507787 
L 547.160242 403.507787 
L 547.160242 0 
L 0 0 
z
" style="fill: #ffffff"/>
  </g>
  <g id="axes_1">
   <g id="patch_2">
    <path d="M 51.63125 149.270633 
L 541.240171 149.270633 
L 541.240171 54.681287 
L 51.63125 54.681287 
z
" style="fill: #ffffff"/>
   </g>
   <g id="FillBetweenPolyCollection_1">
    <defs>
     <path id="me417be6e28" d="M 313.203139 -284.351887 
L 313.203139 -254.237154 
L 316.556625 -254.237154 
L 319.910111 -254.237154 
L 323.263597 -254.237154 
L 326.617082 -254.237154 
L 329.970568 -254.237154 
L 333.324054 -254.237154 
L 336.67754 -254.237154 
L 340.031026 -254.237154 
L 343.384511 -254.237154 
L 343.384511 -278.857166 
L 343.384511 -278.857166 
L 340.031026 -280.181179 
L 336.67754 -295.700422 
L 333.324054 -298.506499 
L 329.970568 -295.080541 
L 326.617082 -312.347006 
L 323.263597 -300.892582 
L 319.910111 -295.008304 
L 316.556625 -284.551936 
L 313.203139 -284.351887 
z
" style="stroke: #ffa500; stroke-opacity: 0.3"/>
    </defs>
    <g clip-path="url(#p107660722b)">
     <use xlink:href="#me417be6e28" x="0" y="403.507787" style="fill: #ffa500; fill-opacity: 0.3; stroke: #ffa500; stroke-opacity: 0.3"/>
    </g>
   </g>
   <g id="FillBetweenPolyCollection_2">
    <defs>
     <path id="mebca67ae51" d="M 343.384511 -275.432324 
L 343.384511 -254.237154 
L 346.737997 -254.237154 
L 350.091483 -254.237154 
L 353.444969 -254.237154 
L 356.798454 -254.237154 
L 360.15194 -254.237154 
L 363.505426 -254.237154 
L 366.858912 -254.237154 
L 370.212397 -254.237154 
L 370.212397 -286.369073 
L 370.212397 -286.369073 
L 366.858912 -298.166863 
L 363.505426 -305.464718 
L 360.15194 -305.54807 
L 356.798454 -295.976129 
L 353.444969 -286.054634 
L 350.091483 -286.106731 
L 346.737997 -281.757571 
L 343.384511 -275.432324 
z
" style="stroke: #0000ff; stroke-opacity: 0.3"/>
    </defs>
    <g clip-path="url(#p107660722b)">
     <use xlink:href="#mebca67ae51" x="0" y="403.507787" style="fill: #0000ff; fill-opacity: 0.3; stroke: #0000ff; stroke-opacity: 0.3"/>
    </g>
   </g>
   <g id="FillBetweenPolyCollection_3">
    <defs>
     <path id="m849c27e2f8" d="M 370.212397 -291.008246 
L 370.212397 -254.237154 
L 373.565883 -254.237154 
L 376.919369 -254.237154 
L 380.272855 -254.237154 
L 383.62634 -254.237154 
L 386.979826 -254.237154 
L 386.979826 -272.849421 
L 386.979826 -272.849421 
L 383.62634 -280.354832 
L 380.272855 -282.187322 
L 376.919369 -286.094518 
L 373.565883 -286.626938 
L 370.212397 -291.008246 
z
" style="stroke: #ffa500; stroke-opacity: 0.3"/>
    </defs>
    <g clip-path="url(#p107660722b)">
     <use xlink:href="#m849c27e2f8" x="0" y="403.507787" style="fill: #ffa500; fill-opacity: 0.3; stroke: #ffa500; stroke-opacity: 0.3"/>
    </g>
   </g>
   <g id="FillBetweenPolyCollection_4">
    <defs>
     <path id="mdbfee9caae" d="M 246.133424 -276.999167 
L 246.133424 -254.237154 
L 249.48691 -254.237154 
L 252.840396 -254.237154 
L 256.193881 -254.237154 
L 259.547367 -254.237154 
L 259.547367 -276.857231 
L 259.547367 -276.857231 
L 256.193881 -279.707481 
L 252.840396 -282.700647 
L 249.48691 -278.570703 
L 246.133424 -276.999167 
z
" style="stroke: #0000ff; stroke-opacity: 0.3"/>
    </defs>
    <g clip-path="url(#p107660722b)">
     <use xlink:href="#mdbfee9caae" x="0" y="403.507787" style="fill: #0000ff; fill-opacity: 0.3; stroke: #0000ff; stroke-opacity: 0.3"/>
    </g>
   </g>
   <g id="matplotlib.axis_1">
    <g id="xtick_1">
     <g id="line2d_1">
      <defs>
       <path id="m39af025d73" d="M 0 0 
L 0 -10 
" style="stroke: #000000; stroke-width: 2"/>
      </defs>
      <g>
       <use xlink:href="#m39af025d73" x="54.984736" y="149.270633" style="stroke: #000000; stroke-width: 2"/>
      </g>
     </g>
     <g id="line2d_2">
      <defs>
       <path id="ma7dcdea6ae" d="M 0 0 
L 0 10 
" style="stroke: #000000; stroke-width: 2"/>
      </defs>
      <g>
       <use xlink:href="#ma7dcdea6ae" x="54.984736" y="54.681287" style="stroke: #000000; stroke-width: 2"/>
      </g>
     </g>
     <g id="text_1">
      <!-- 0 -->
      <g transform="translate(48.622236 167.967508) scale(0.2 -0.2)">
       <defs>
        <path id="DejaVuSans-30" d="M 2034 4250 
Q 1547 4250 1301 3770 
Q 1056 3291 1056 2328 
Q 1056 1369 1301 889 
Q 1547 409 2034 409 
Q 2525 409 2770 889 
Q 3016 1369 3016 2328 
Q 3016 3291 2770 3770 
Q 2525 4250 2034 4250 
z
M 2034 4750 
Q 2819 4750 3233 4129 
Q 3647 3509 3647 2328 
Q 3647 1150 3233 529 
Q 2819 -91 2034 -91 
Q 1250 -91 836 529 
Q 422 1150 422 2328 
Q 422 3509 836 4129 
Q 1250 4750 2034 4750 
z
" transform="scale(0.015625)"/>
       </defs>
       <use xlink:href="#DejaVuSans-30"/>
      </g>
     </g>
    </g>
    <g id="xtick_2">
     <g id="line2d_3">
      <g>
       <use xlink:href="#m39af025d73" x="122.054451" y="149.270633" style="stroke: #000000; stroke-width: 2"/>
      </g>
     </g>
     <g id="line2d_4">
      <g>
       <use xlink:href="#ma7dcdea6ae" x="122.054451" y="54.681287" style="stroke: #000000; stroke-width: 2"/>
      </g>
     </g>
     <g id="text_2">
      <!-- 20 -->
      <g transform="translate(109.329451 167.967508) scale(0.2 -0.2)">
       <defs>
        <path id="DejaVuSans-32" d="M 1228 531 
L 3431 531 
L 3431 0 
L 469 0 
L 469 531 
Q 828 903 1448 1529 
Q 2069 2156 2228 2338 
Q 2531 2678 2651 2914 
Q 2772 3150 2772 3378 
Q 2772 3750 2511 3984 
Q 2250 4219 1831 4219 
Q 1534 4219 1204 4116 
Q 875 4013 500 3803 
L 500 4441 
Q 881 4594 1212 4672 
Q 1544 4750 1819 4750 
Q 2544 4750 2975 4387 
Q 3406 4025 3406 3419 
Q 3406 3131 3298 2873 
Q 3191 2616 2906 2266 
Q 2828 2175 2409 1742 
Q 1991 1309 1228 531 
z
" transform="scale(0.015625)"/>
       </defs>
       <use xlink:href="#DejaVuSans-32"/>
       <use xlink:href="#DejaVuSans-30" transform="translate(63.623047 0)"/>
      </g>
     </g>
    </g>
    <g id="xtick_3">
     <g id="line2d_5">
      <g>
       <use xlink:href="#m39af025d73" x="189.124166" y="149.270633" style="stroke: #000000; stroke-width: 2"/>
      </g>
     </g>
     <g id="line2d_6">
      <g>
       <use xlink:href="#ma7dcdea6ae" x="189.124166" y="54.681287" style="stroke: #000000; stroke-width: 2"/>
      </g>
     </g>
     <g id="text_3">
      <!-- 40 -->
      <g transform="translate(176.399166 167.967508) scale(0.2 -0.2)">
       <defs>
        <path id="DejaVuSans-34" d="M 2419 4116 
L 825 1625 
L 2419 1625 
L 2419 4116 
z
M 2253 4666 
L 3047 4666 
L 3047 1625 
L 3713 1625 
L 3713 1100 
L 3047 1100 
L 3047 0 
L 2419 0 
L 2419 1100 
L 313 1100 
L 313 1709 
L 2253 4666 
z
" transform="scale(0.015625)"/>
       </defs>
       <use xlink:href="#DejaVuSans-34"/>
       <use xlink:href="#DejaVuSans-30" transform="translate(63.623047 0)"/>
      </g>
     </g>
    </g>
    <g id="xtick_4">
     <g id="line2d_7">
      <g>
       <use xlink:href="#m39af025d73" x="256.193881" y="149.270633" style="stroke: #000000; stroke-width: 2"/>
      </g>
     </g>
     <g id="line2d_8">
      <g>
       <use xlink:href="#ma7dcdea6ae" x="256.193881" y="54.681287" style="stroke: #000000; stroke-width: 2"/>
      </g>
     </g>
     <g id="text_4">
      <!-- 60 -->
      <g transform="translate(243.468881 167.967508) scale(0.2 -0.2)">
       <defs>
        <path id="DejaVuSans-36" d="M 2113 2584 
Q 1688 2584 1439 2293 
Q 1191 2003 1191 1497 
Q 1191 994 1439 701 
Q 1688 409 2113 409 
Q 2538 409 2786 701 
Q 3034 994 3034 1497 
Q 3034 2003 2786 2293 
Q 2538 2584 2113 2584 
z
M 3366 4563 
L 3366 3988 
Q 3128 4100 2886 4159 
Q 2644 4219 2406 4219 
Q 1781 4219 1451 3797 
Q 1122 3375 1075 2522 
Q 1259 2794 1537 2939 
Q 1816 3084 2150 3084 
Q 2853 3084 3261 2657 
Q 3669 2231 3669 1497 
Q 3669 778 3244 343 
Q 2819 -91 2113 -91 
Q 1303 -91 875 529 
Q 447 1150 447 2328 
Q 447 3434 972 4092 
Q 1497 4750 2381 4750 
Q 2619 4750 2861 4703 
Q 3103 4656 3366 4563 
z
" transform="scale(0.015625)"/>
       </defs>
       <use xlink:href="#DejaVuSans-36"/>
       <use xlink:href="#DejaVuSans-30" transform="translate(63.623047 0)"/>
      </g>
     </g>
    </g>
    <g id="xtick_5">
     <g id="line2d_9">
      <g>
       <use xlink:href="#m39af025d73" x="323.263597" y="149.270633" style="stroke: #000000; stroke-width: 2"/>
      </g>
     </g>
     <g id="line2d_10">
      <g>
       <use xlink:href="#ma7dcdea6ae" x="323.263597" y="54.681287" style="stroke: #000000; stroke-width: 2"/>
      </g>
     </g>
     <g id="text_5">
      <!-- 80 -->
      <g transform="translate(310.538597 167.967508) scale(0.2 -0.2)">
       <defs>
        <path id="DejaVuSans-38" d="M 2034 2216 
Q 1584 2216 1326 1975 
Q 1069 1734 1069 1313 
Q 1069 891 1326 650 
Q 1584 409 2034 409 
Q 2484 409 2743 651 
Q 3003 894 3003 1313 
Q 3003 1734 2745 1975 
Q 2488 2216 2034 2216 
z
M 1403 2484 
Q 997 2584 770 2862 
Q 544 3141 544 3541 
Q 544 4100 942 4425 
Q 1341 4750 2034 4750 
Q 2731 4750 3128 4425 
Q 3525 4100 3525 3541 
Q 3525 3141 3298 2862 
Q 3072 2584 2669 2484 
Q 3125 2378 3379 2068 
Q 3634 1759 3634 1313 
Q 3634 634 3220 271 
Q 2806 -91 2034 -91 
Q 1263 -91 848 271 
Q 434 634 434 1313 
Q 434 1759 690 2068 
Q 947 2378 1403 2484 
z
M 1172 3481 
Q 1172 3119 1398 2916 
Q 1625 2713 2034 2713 
Q 2441 2713 2670 2916 
Q 2900 3119 2900 3481 
Q 2900 3844 2670 4047 
Q 2441 4250 2034 4250 
Q 1625 4250 1398 4047 
Q 1172 3844 1172 3481 
z
" transform="scale(0.015625)"/>
       </defs>
       <use xlink:href="#DejaVuSans-38"/>
       <use xlink:href="#DejaVuSans-30" transform="translate(63.623047 0)"/>
      </g>
     </g>
    </g>
    <g id="xtick_6">
     <g id="line2d_11">
      <g>
       <use xlink:href="#m39af025d73" x="390.333312" y="149.270633" style="stroke: #000000; stroke-width: 2"/>
      </g>
     </g>
     <g id="line2d_12">
      <g>
       <use xlink:href="#ma7dcdea6ae" x="390.333312" y="54.681287" style="stroke: #000000; stroke-width: 2"/>
      </g>
     </g>
     <g id="text_6">
      <!-- 100 -->
      <g transform="translate(371.245812 167.967508) scale(0.2 -0.2)">
       <defs>
        <path id="DejaVuSans-31" d="M 794 531 
L 1825 531 
L 1825 4091 
L 703 3866 
L 703 4441 
L 1819 4666 
L 2450 4666 
L 2450 531 
L 3481 531 
L 3481 0 
L 794 0 
L 794 531 
z
" transform="scale(0.015625)"/>
       </defs>
       <use xlink:href="#DejaVuSans-31"/>
       <use xlink:href="#DejaVuSans-30" transform="translate(63.623047 0)"/>
       <use xlink:href="#DejaVuSans-30" transform="translate(127.246094 0)"/>
      </g>
     </g>
    </g>
    <g id="xtick_7">
     <g id="line2d_13">
      <g>
       <use xlink:href="#m39af025d73" x="457.403027" y="149.270633" style="stroke: #000000; stroke-width: 2"/>
      </g>
     </g>
     <g id="line2d_14">
      <g>
       <use xlink:href="#ma7dcdea6ae" x="457.403027" y="54.681287" style="stroke: #000000; stroke-width: 2"/>
      </g>
     </g>
     <g id="text_7">
      <!-- 120 -->
      <g transform="translate(438.315527 167.967508) scale(0.2 -0.2)">
       <use xlink:href="#DejaVuSans-31"/>
       <use xlink:href="#DejaVuSans-32" transform="translate(63.623047 0)"/>
       <use xlink:href="#DejaVuSans-30" transform="translate(127.246094 0)"/>
      </g>
     </g>
    </g>
    <g id="xtick_8">
     <g id="line2d_15">
      <g>
       <use xlink:href="#m39af025d73" x="524.472742" y="149.270633" style="stroke: #000000; stroke-width: 2"/>
      </g>
     </g>
     <g id="line2d_16">
      <g>
       <use xlink:href="#ma7dcdea6ae" x="524.472742" y="54.681287" style="stroke: #000000; stroke-width: 2"/>
      </g>
     </g>
     <g id="text_8">
      <!-- 140 -->
      <g transform="translate(505.385242 167.967508) scale(0.2 -0.2)">
       <use xlink:href="#DejaVuSans-31"/>
       <use xlink:href="#DejaVuSans-34" transform="translate(63.623047 0)"/>
       <use xlink:href="#DejaVuSans-30" transform="translate(127.246094 0)"/>
      </g>
     </g>
    </g>
    <g id="text_9">
     <!-- Residue Number -->
     <g transform="translate(213.607586 191.323758) scale(0.2 -0.2)">
      <defs>
       <path id="DejaVuSans-52" d="M 2841 2188 
Q 3044 2119 3236 1894 
Q 3428 1669 3622 1275 
L 4263 0 
L 3584 0 
L 2988 1197 
Q 2756 1666 2539 1819 
Q 2322 1972 1947 1972 
L 1259 1972 
L 1259 0 
L 628 0 
L 628 4666 
L 2053 4666 
Q 2853 4666 3247 4331 
Q 3641 3997 3641 3322 
Q 3641 2881 3436 2590 
Q 3231 2300 2841 2188 
z
M 1259 4147 
L 1259 2491 
L 2053 2491 
Q 2509 2491 2742 2702 
Q 2975 2913 2975 3322 
Q 2975 3731 2742 3939 
Q 2509 4147 2053 4147 
L 1259 4147 
z
" transform="scale(0.015625)"/>
       <path id="DejaVuSans-65" d="M 3597 1894 
L 3597 1613 
L 953 1613 
Q 991 1019 1311 708 
Q 1631 397 2203 397 
Q 2534 397 2845 478 
Q 3156 559 3463 722 
L 3463 178 
Q 3153 47 2828 -22 
Q 2503 -91 2169 -91 
Q 1331 -91 842 396 
Q 353 884 353 1716 
Q 353 2575 817 3079 
Q 1281 3584 2069 3584 
Q 2775 3584 3186 3129 
Q 3597 2675 3597 1894 
z
M 3022 2063 
Q 3016 2534 2758 2815 
Q 2500 3097 2075 3097 
Q 1594 3097 1305 2825 
Q 1016 2553 972 2059 
L 3022 2063 
z
" transform="scale(0.015625)"/>
       <path id="DejaVuSans-73" d="M 2834 3397 
L 2834 2853 
Q 2591 2978 2328 3040 
Q 2066 3103 1784 3103 
Q 1356 3103 1142 2972 
Q 928 2841 928 2578 
Q 928 2378 1081 2264 
Q 1234 2150 1697 2047 
L 1894 2003 
Q 2506 1872 2764 1633 
Q 3022 1394 3022 966 
Q 3022 478 2636 193 
Q 2250 -91 1575 -91 
Q 1294 -91 989 -36 
Q 684 19 347 128 
L 347 722 
Q 666 556 975 473 
Q 1284 391 1588 391 
Q 1994 391 2212 530 
Q 2431 669 2431 922 
Q 2431 1156 2273 1281 
Q 2116 1406 1581 1522 
L 1381 1569 
Q 847 1681 609 1914 
Q 372 2147 372 2553 
Q 372 3047 722 3315 
Q 1072 3584 1716 3584 
Q 2034 3584 2315 3537 
Q 2597 3491 2834 3397 
z
" transform="scale(0.015625)"/>
       <path id="DejaVuSans-69" d="M 603 3500 
L 1178 3500 
L 1178 0 
L 603 0 
L 603 3500 
z
M 603 4863 
L 1178 4863 
L 1178 4134 
L 603 4134 
L 603 4863 
z
" transform="scale(0.015625)"/>
       <path id="DejaVuSans-64" d="M 2906 2969 
L 2906 4863 
L 3481 4863 
L 3481 0 
L 2906 0 
L 2906 525 
Q 2725 213 2448 61 
Q 2172 -91 1784 -91 
Q 1150 -91 751 415 
Q 353 922 353 1747 
Q 353 2572 751 3078 
Q 1150 3584 1784 3584 
Q 2172 3584 2448 3432 
Q 2725 3281 2906 2969 
z
M 947 1747 
Q 947 1113 1208 752 
Q 1469 391 1925 391 
Q 2381 391 2643 752 
Q 2906 1113 2906 1747 
Q 2906 2381 2643 2742 
Q 2381 3103 1925 3103 
Q 1469 3103 1208 2742 
Q 947 2381 947 1747 
z
" transform="scale(0.015625)"/>
       <path id="DejaVuSans-75" d="M 544 1381 
L 544 3500 
L 1119 3500 
L 1119 1403 
Q 1119 906 1312 657 
Q 1506 409 1894 409 
Q 2359 409 2629 706 
Q 2900 1003 2900 1516 
L 2900 3500 
L 3475 3500 
L 3475 0 
L 2900 0 
L 2900 538 
Q 2691 219 2414 64 
Q 2138 -91 1772 -91 
Q 1169 -91 856 284 
Q 544 659 544 1381 
z
M 1991 3584 
L 1991 3584 
z
" transform="scale(0.015625)"/>
       <path id="DejaVuSans-20" transform="scale(0.015625)"/>
       <path id="DejaVuSans-4e" d="M 628 4666 
L 1478 4666 
L 3547 763 
L 3547 4666 
L 4159 4666 
L 4159 0 
L 3309 0 
L 1241 3903 
L 1241 0 
L 628 0 
L 628 4666 
z
" transform="scale(0.015625)"/>
       <path id="DejaVuSans-6d" d="M 3328 2828 
Q 3544 3216 3844 3400 
Q 4144 3584 4550 3584 
Q 5097 3584 5394 3201 
Q 5691 2819 5691 2113 
L 5691 0 
L 5113 0 
L 5113 2094 
Q 5113 2597 4934 2840 
Q 4756 3084 4391 3084 
Q 3944 3084 3684 2787 
Q 3425 2491 3425 1978 
L 3425 0 
L 2847 0 
L 2847 2094 
Q 2847 2600 2669 2842 
Q 2491 3084 2119 3084 
Q 1678 3084 1418 2786 
Q 1159 2488 1159 1978 
L 1159 0 
L 581 0 
L 581 3500 
L 1159 3500 
L 1159 2956 
Q 1356 3278 1631 3431 
Q 1906 3584 2284 3584 
Q 2666 3584 2933 3390 
Q 3200 3197 3328 2828 
z
" transform="scale(0.015625)"/>
       <path id="DejaVuSans-62" d="M 3116 1747 
Q 3116 2381 2855 2742 
Q 2594 3103 2138 3103 
Q 1681 3103 1420 2742 
Q 1159 2381 1159 1747 
Q 1159 1113 1420 752 
Q 1681 391 2138 391 
Q 2594 391 2855 752 
Q 3116 1113 3116 1747 
z
M 1159 2969 
Q 1341 3281 1617 3432 
Q 1894 3584 2278 3584 
Q 2916 3584 3314 3078 
Q 3713 2572 3713 1747 
Q 3713 922 3314 415 
Q 2916 -91 2278 -91 
Q 1894 -91 1617 61 
Q 1341 213 1159 525 
L 1159 0 
L 581 0 
L 581 4863 
L 1159 4863 
L 1159 2969 
z
" transform="scale(0.015625)"/>
       <path id="DejaVuSans-72" d="M 2631 2963 
Q 2534 3019 2420 3045 
Q 2306 3072 2169 3072 
Q 1681 3072 1420 2755 
Q 1159 2438 1159 1844 
L 1159 0 
L 581 0 
L 581 3500 
L 1159 3500 
L 1159 2956 
Q 1341 3275 1631 3429 
Q 1922 3584 2338 3584 
Q 2397 3584 2469 3576 
Q 2541 3569 2628 3553 
L 2631 2963 
z
" transform="scale(0.015625)"/>
      </defs>
      <use xlink:href="#DejaVuSans-52"/>
      <use xlink:href="#DejaVuSans-65" transform="translate(64.982422 0)"/>
      <use xlink:href="#DejaVuSans-73" transform="translate(126.505859 0)"/>
      <use xlink:href="#DejaVuSans-69" transform="translate(178.605469 0)"/>
      <use xlink:href="#DejaVuSans-64" transform="translate(206.388672 0)"/>
      <use xlink:href="#DejaVuSans-75" transform="translate(269.865234 0)"/>
      <use xlink:href="#DejaVuSans-65" transform="translate(333.244141 0)"/>
      <use xlink:href="#DejaVuSans-20" transform="translate(394.767578 0)"/>
      <use xlink:href="#DejaVuSans-4e" transform="translate(426.554688 0)"/>
      <use xlink:href="#DejaVuSans-75" transform="translate(501.359375 0)"/>
      <use xlink:href="#DejaVuSans-6d" transform="translate(564.738281 0)"/>
      <use xlink:href="#DejaVuSans-62" transform="translate(662.150391 0)"/>
      <use xlink:href="#DejaVuSans-65" transform="translate(725.626953 0)"/>
      <use xlink:href="#DejaVuSans-72" transform="translate(787.150391 0)"/>
     </g>
    </g>
   </g>
   <g id="matplotlib.axis_2">
    <g id="ytick_1">
     <g id="line2d_17">
      <defs>
       <path id="mda61749508" d="M 0 0 
L 10 0 
" style="stroke: #000000; stroke-width: 2"/>
      </defs>
      <g>
       <use xlink:href="#mda61749508" x="51.63125" y="145.245554" style="stroke: #000000; stroke-width: 2"/>
      </g>
     </g>
     <g id="line2d_18">
      <defs>
       <path id="mceed3c29f6" d="M 0 0 
L -10 0 
" style="stroke: #000000; stroke-width: 2"/>
      </defs>
      <g>
       <use xlink:href="#mceed3c29f6" x="541.240171" y="145.245554" style="stroke: #000000; stroke-width: 2"/>
      </g>
     </g>
     <g id="text_10">
      <!-- 0.00 -->
      <g transform="translate(3.6 152.843991) scale(0.2 -0.2)">
       <defs>
        <path id="DejaVuSans-2e" d="M 684 794 
L 1344 794 
L 1344 0 
L 684 0 
L 684 794 
z
" transform="scale(0.015625)"/>
       </defs>
       <use xlink:href="#DejaVuSans-30"/>
       <use xlink:href="#DejaVuSans-2e" transform="translate(63.623047 0)"/>
       <use xlink:href="#DejaVuSans-30" transform="translate(95.410156 0)"/>
       <use xlink:href="#DejaVuSans-30" transform="translate(159.033203 0)"/>
      </g>
     </g>
    </g>
    <g id="ytick_2">
     <g id="line2d_19">
      <g>
       <use xlink:href="#mda61749508" x="51.63125" y="94.932072" style="stroke: #000000; stroke-width: 2"/>
      </g>
     </g>
     <g id="line2d_20">
      <g>
       <use xlink:href="#mceed3c29f6" x="541.240171" y="94.932072" style="stroke: #000000; stroke-width: 2"/>
      </g>
     </g>
     <g id="text_11">
      <!-- 0.25 -->
      <g transform="translate(3.6 102.53051) scale(0.2 -0.2)">
       <defs>
        <path id="DejaVuSans-35" d="M 691 4666 
L 3169 4666 
L 3169 4134 
L 1269 4134 
L 1269 2991 
Q 1406 3038 1543 3061 
Q 1681 3084 1819 3084 
Q 2600 3084 3056 2656 
Q 3513 2228 3513 1497 
Q 3513 744 3044 326 
Q 2575 -91 1722 -91 
Q 1428 -91 1123 -41 
Q 819 9 494 109 
L 494 744 
Q 775 591 1075 516 
Q 1375 441 1709 441 
Q 2250 441 2565 725 
Q 2881 1009 2881 1497 
Q 2881 1984 2565 2268 
Q 2250 2553 1709 2553 
Q 1456 2553 1204 2497 
Q 953 2441 691 2322 
L 691 4666 
z
" transform="scale(0.015625)"/>
       </defs>
       <use xlink:href="#DejaVuSans-30"/>
       <use xlink:href="#DejaVuSans-2e" transform="translate(63.623047 0)"/>
       <use xlink:href="#DejaVuSans-32" transform="translate(95.410156 0)"/>
       <use xlink:href="#DejaVuSans-35" transform="translate(159.033203 0)"/>
      </g>
     </g>
    </g>
   </g>
   <g id="line2d_21">
    <path d="M 58.338222 75.09473 
L 61.691707 101.913565 
L 65.045193 122.322849 
L 68.398679 125.299899 
L 71.752165 124.211486 
L 75.10565 124.964409 
L 78.459136 130.670768 
L 81.812622 130.915319 
L 85.166108 128.664951 
L 88.519593 130.834684 
L 91.873079 133.861148 
L 95.226565 131.100338 
L 98.580051 128.823653 
L 101.933536 129.864218 
L 105.287022 130.290482 
L 108.640508 128.711366 
L 111.993994 126.597803 
L 115.347479 124.657094 
L 118.700965 115.374116 
L 122.054451 111.451515 
L 125.407937 120.532236 
L 128.761423 117.511206 
L 132.114908 119.686072 
L 135.468394 126.783477 
L 138.82188 131.684001 
L 142.175366 132.318248 
L 145.528851 131.805754 
L 148.882337 133.161971 
L 152.235823 134.358884 
L 155.589309 134.056718 
L 158.942794 132.809014 
L 165.649766 132.389045 
L 169.003252 130.635582 
L 172.356737 128.094091 
L 175.710223 128.465913 
L 179.063709 127.514144 
L 182.417195 116.950455 
L 185.77068 124.928733 
L 189.124166 129.265129 
L 192.477652 127.433564 
L 195.831138 123.648576 
L 199.184624 123.194926 
L 202.538109 118.837389 
L 205.891595 96.230218 
L 209.245081 98.918521 
L 212.598567 108.688117 
L 215.952052 94.169049 
L 219.305538 107.142267 
L 222.659024 119.310227 
L 226.01251 119.327424 
L 229.365995 114.522636 
L 232.719481 105.741263 
L 236.072967 110.894591 
L 239.426453 113.178477 
L 242.779938 117.646924 
L 246.133424 123.707463 
L 249.48691 124.623115 
L 252.840396 128.488272 
L 256.193881 130.943761 
L 259.547367 127.951017 
L 262.900853 122.500421 
L 266.254339 122.569063 
L 269.607825 126.622374 
L 272.96131 127.248988 
L 276.314796 125.950757 
L 279.668282 129.448917 
L 283.021768 132.255103 
L 286.375253 129.877554 
L 289.728739 129.966327 
L 293.082225 132.895882 
L 296.435711 132.345767 
L 299.789196 126.907627 
L 303.142682 126.583598 
L 306.496168 129.851952 
L 309.849654 121.399075 
L 313.203139 119.1559 
L 316.556625 118.95585 
L 319.910111 108.499483 
L 323.263597 102.615205 
L 326.617082 91.160781 
L 329.970568 108.427246 
L 333.324054 105.001288 
L 336.67754 107.807365 
L 340.031026 123.326608 
L 343.384511 124.650621 
L 346.737997 123.773019 
L 350.091483 122.419104 
L 353.444969 125.344027 
L 356.798454 118.598963 
L 360.15194 116.086899 
L 363.505426 115.568046 
L 366.858912 113.894356 
L 370.212397 112.499541 
L 373.565883 116.880849 
L 376.919369 117.413269 
L 380.272855 121.320465 
L 383.62634 123.152955 
L 386.979826 130.658366 
L 390.333312 131.23014 
L 393.686798 130.840008 
L 397.040283 132.525737 
L 400.393769 133.516532 
L 403.747255 132.409854 
L 407.100741 131.835433 
L 410.454227 133.720392 
L 413.807712 133.785852 
L 420.514684 131.503219 
L 423.86817 132.154157 
L 427.221655 132.983057 
L 430.575141 131.110082 
L 433.928627 127.719995 
L 437.282113 127.044312 
L 440.635598 125.238993 
L 443.989084 120.492704 
L 447.34257 114.649862 
L 450.696056 117.868523 
L 454.049541 127.611537 
L 457.403027 126.446825 
L 460.756513 124.550722 
L 464.109999 122.124051 
L 467.463484 129.153815 
L 470.81697 130.86295 
L 474.170456 130.503851 
L 477.523942 133.626741 
L 480.877428 135.175487 
L 484.230913 133.183762 
L 487.584399 133.89412 
L 490.937885 135.993302 
L 494.291371 134.807406 
L 497.644856 132.796365 
L 504.351828 133.556866 
L 507.705314 131.962839 
L 511.058799 128.714307 
L 514.412285 128.577746 
L 517.765771 129.774428 
L 521.119257 124.278446 
L 524.472742 117.937138 
L 527.826228 116.839358 
L 531.179714 105.193326 
L 534.5332 78.32065 
L 534.5332 78.32065 
" clip-path="url(#p107660722b)" style="fill: none; stroke: #ffa500; stroke-width: 2; stroke-linecap: square"/>
   </g>
   <g id="line2d_22">
    <path d="M 58.338222 55.478589 
L 61.691707 90.568137 
L 65.045193 116.688054 
L 68.398679 120.968373 
L 71.752165 119.493566 
L 75.10565 119.362986 
L 78.459136 127.669374 
L 81.812622 128.868889 
L 85.166108 125.715575 
L 88.519593 127.924455 
L 91.873079 132.2575 
L 95.226565 130.412279 
L 98.580051 127.174475 
L 101.933536 128.546682 
L 105.287022 130.883888 
L 108.640508 129.509462 
L 111.993994 127.052278 
L 115.347479 125.315046 
L 118.700965 124.690571 
L 122.054451 121.54399 
L 125.407937 117.12004 
L 128.761423 113.255092 
L 132.114908 120.977846 
L 135.468394 128.348526 
L 138.82188 132.376384 
L 142.175366 132.394226 
L 145.528851 131.087921 
L 148.882337 133.309835 
L 152.235823 134.382292 
L 155.589309 133.849705 
L 158.942794 132.591957 
L 162.29628 133.738542 
L 165.649766 133.087018 
L 169.003252 130.614726 
L 172.356737 127.376761 
L 175.710223 124.856766 
L 179.063709 124.591467 
L 182.417195 117.082342 
L 185.77068 118.971111 
L 189.124166 122.714477 
L 192.477652 119.305451 
L 195.831138 111.862175 
L 199.184624 110.532097 
L 202.538109 120.371175 
L 205.891595 111.182446 
L 209.245081 103.872871 
L 212.598567 108.917288 
L 215.952052 97.75683 
L 219.305538 105.881149 
L 222.659024 111.290592 
L 226.01251 105.387733 
L 229.365995 102.193666 
L 232.719481 110.635959 
L 236.072967 118.174346 
L 239.426453 116.523172 
L 242.779938 118.064746 
L 246.133424 126.50862 
L 249.48691 124.937084 
L 252.840396 120.80714 
L 259.547367 126.650556 
L 262.900853 126.524342 
L 266.254339 127.153041 
L 269.607825 126.983413 
L 272.96131 128.985822 
L 276.314796 127.970577 
L 279.668282 130.078311 
L 283.021768 131.288648 
L 286.375253 129.572573 
L 289.728739 128.347439 
L 293.082225 130.413873 
L 296.435711 130.281105 
L 299.789196 126.600132 
L 303.142682 125.943924 
L 306.496168 127.785035 
L 309.849654 119.742544 
L 313.203139 117.345104 
L 316.556625 121.10246 
L 319.910111 115.53497 
L 323.263597 114.022698 
L 326.617082 116.746974 
L 329.970568 121.06874 
L 333.324054 121.433661 
L 336.67754 120.186892 
L 340.031026 125.725716 
L 343.384511 128.075463 
L 346.737997 121.750216 
L 350.091483 117.401056 
L 353.444969 117.453153 
L 356.798454 107.531658 
L 360.15194 97.959717 
L 363.505426 98.043069 
L 366.858912 105.340924 
L 370.212397 117.138714 
L 373.565883 126.458641 
L 376.919369 130.301874 
L 380.272855 130.386584 
L 383.62634 129.627326 
L 390.333312 133.21065 
L 393.686798 132.562811 
L 397.040283 133.516294 
L 400.393769 134.644486 
L 403.747255 132.389696 
L 407.100741 131.407853 
L 410.454227 134.282897 
L 413.807712 133.768549 
L 417.161198 132.497175 
L 420.514684 132.694522 
L 423.86817 133.017849 
L 427.221655 131.112125 
L 430.575141 127.849814 
L 433.928627 124.249709 
L 437.282113 126.38887 
L 440.635598 122.042116 
L 447.34257 107.142402 
L 450.696056 109.793865 
L 454.049541 118.229527 
L 457.403027 102.903868 
L 460.756513 94.432846 
L 464.109999 89.526882 
L 467.463484 111.081128 
L 470.81697 128.03035 
L 474.170456 129.275017 
L 477.523942 132.701641 
L 480.877428 133.549067 
L 484.230913 132.277785 
L 490.937885 134.48606 
L 494.291371 133.736881 
L 497.644856 131.318222 
L 500.998342 129.721836 
L 504.351828 131.5057 
L 507.705314 132.295271 
L 511.058799 128.464092 
L 514.412285 126.929121 
L 517.765771 130.704672 
L 521.119257 128.843612 
L 524.472742 123.139775 
L 527.826228 121.277021 
L 531.179714 123.370259 
L 534.5332 110.563143 
L 534.5332 110.563143 
" clip-path="url(#p107660722b)" style="fill: none; stroke: #0000ff; stroke-opacity: 0.5; stroke-width: 2; stroke-linecap: square"/>
   </g>
   <g id="patch_3">
    <path d="M 51.63125 149.270633 
L 51.63125 54.681287 
" style="fill: none; stroke: #000000; stroke-linejoin: miter; stroke-linecap: square"/>
   </g>
   <g id="patch_4">
    <path d="M 541.240171 149.270633 
L 541.240171 54.681287 
" style="fill: none; stroke: #000000; stroke-linejoin: miter; stroke-linecap: square"/>
   </g>
   <g id="patch_5">
    <path d="M 51.63125 149.270633 
L 541.240171 149.270633 
" style="fill: none; stroke: #000000; stroke-linejoin: miter; stroke-linecap: square"/>
   </g>
   <g id="patch_6">
    <path d="M 51.63125 54.681287 
L 541.240171 54.681287 
" style="fill: none; stroke: #000000; stroke-linejoin: miter; stroke-linecap: square"/>
   </g>
   <g id="text_12">
    <!-- RMSF (nm) -->
    <g transform="translate(61.423428 79.337096) scale(0.2 -0.2)">
     <defs>
      <path id="DejaVuSans-4d" d="M 628 4666 
L 1569 4666 
L 2759 1491 
L 3956 4666 
L 4897 4666 
L 4897 0 
L 4281 0 
L 4281 4097 
L 3078 897 
L 2444 897 
L 1241 4097 
L 1241 0 
L 628 0 
L 628 4666 
z
" transform="scale(0.015625)"/>
      <path id="DejaVuSans-53" d="M 3425 4513 
L 3425 3897 
Q 3066 4069 2747 4153 
Q 2428 4238 2131 4238 
Q 1616 4238 1336 4038 
Q 1056 3838 1056 3469 
Q 1056 3159 1242 3001 
Q 1428 2844 1947 2747 
L 2328 2669 
Q 3034 2534 3370 2195 
Q 3706 1856 3706 1288 
Q 3706 609 3251 259 
Q 2797 -91 1919 -91 
Q 1588 -91 1214 -16 
Q 841 59 441 206 
L 441 856 
Q 825 641 1194 531 
Q 1563 422 1919 422 
Q 2459 422 2753 634 
Q 3047 847 3047 1241 
Q 3047 1584 2836 1778 
Q 2625 1972 2144 2069 
L 1759 2144 
Q 1053 2284 737 2584 
Q 422 2884 422 3419 
Q 422 4038 858 4394 
Q 1294 4750 2059 4750 
Q 2388 4750 2728 4690 
Q 3069 4631 3425 4513 
z
" transform="scale(0.015625)"/>
      <path id="DejaVuSans-46" d="M 628 4666 
L 3309 4666 
L 3309 4134 
L 1259 4134 
L 1259 2759 
L 3109 2759 
L 3109 2228 
L 1259 2228 
L 1259 0 
L 628 0 
L 628 4666 
z
" transform="scale(0.015625)"/>
      <path id="DejaVuSans-28" d="M 1984 4856 
Q 1566 4138 1362 3434 
Q 1159 2731 1159 2009 
Q 1159 1288 1364 580 
Q 1569 -128 1984 -844 
L 1484 -844 
Q 1016 -109 783 600 
Q 550 1309 550 2009 
Q 550 2706 781 3412 
Q 1013 4119 1484 4856 
L 1984 4856 
z
" transform="scale(0.015625)"/>
      <path id="DejaVuSans-6e" d="M 3513 2113 
L 3513 0 
L 2938 0 
L 2938 2094 
Q 2938 2591 2744 2837 
Q 2550 3084 2163 3084 
Q 1697 3084 1428 2787 
Q 1159 2491 1159 1978 
L 1159 0 
L 581 0 
L 581 3500 
L 1159 3500 
L 1159 2956 
Q 1366 3272 1645 3428 
Q 1925 3584 2291 3584 
Q 2894 3584 3203 3211 
Q 3513 2838 3513 2113 
z
" transform="scale(0.015625)"/>
      <path id="DejaVuSans-29" d="M 513 4856 
L 1013 4856 
Q 1481 4119 1714 3412 
Q 1947 2706 1947 2009 
Q 1947 1309 1714 600 
Q 1481 -109 1013 -844 
L 513 -844 
Q 928 -128 1133 580 
Q 1338 1288 1338 2009 
Q 1338 2731 1133 3434 
Q 928 4138 513 4856 
z
" transform="scale(0.015625)"/>
     </defs>
     <use xlink:href="#DejaVuSans-52"/>
     <use xlink:href="#DejaVuSans-4d" transform="translate(69.482422 0)"/>
     <use xlink:href="#DejaVuSans-53" transform="translate(155.761719 0)"/>
     <use xlink:href="#DejaVuSans-46" transform="translate(219.238281 0)"/>
     <use xlink:href="#DejaVuSans-20" transform="translate(276.757812 0)"/>
     <use xlink:href="#DejaVuSans-28" transform="translate(308.544922 0)"/>
     <use xlink:href="#DejaVuSans-6e" transform="translate(347.558594 0)"/>
     <use xlink:href="#DejaVuSans-6d" transform="translate(410.9375 0)"/>
     <use xlink:href="#DejaVuSans-29" transform="translate(508.349609 0)"/>
    </g>
   </g>
   <g id="legend_1">
    <g id="line2d_23">
     <path d="M 58.03125 15.6 
L 74.03125 15.6 
L 90.03125 15.6 
" style="fill: none; stroke: #ffa500; stroke-width: 2; stroke-linecap: square"/>
    </g>
    <g id="text_13">
     <!-- ZebHb Only -->
     <g transform="translate(102.83125 21.2) scale(0.144 -0.144)">
      <defs>
       <path id="DejaVuSans-5a" d="M 359 4666 
L 4025 4666 
L 4025 4184 
L 1075 531 
L 4097 531 
L 4097 0 
L 288 0 
L 288 481 
L 3238 4134 
L 359 4134 
L 359 4666 
z
" transform="scale(0.015625)"/>
       <path id="DejaVuSans-48" d="M 628 4666 
L 1259 4666 
L 1259 2753 
L 3553 2753 
L 3553 4666 
L 4184 4666 
L 4184 0 
L 3553 0 
L 3553 2222 
L 1259 2222 
L 1259 0 
L 628 0 
L 628 4666 
z
" transform="scale(0.015625)"/>
       <path id="DejaVuSans-4f" d="M 2522 4238 
Q 1834 4238 1429 3725 
Q 1025 3213 1025 2328 
Q 1025 1447 1429 934 
Q 1834 422 2522 422 
Q 3209 422 3611 934 
Q 4013 1447 4013 2328 
Q 4013 3213 3611 3725 
Q 3209 4238 2522 4238 
z
M 2522 4750 
Q 3503 4750 4090 4092 
Q 4678 3434 4678 2328 
Q 4678 1225 4090 567 
Q 3503 -91 2522 -91 
Q 1538 -91 948 565 
Q 359 1222 359 2328 
Q 359 3434 948 4092 
Q 1538 4750 2522 4750 
z
" transform="scale(0.015625)"/>
       <path id="DejaVuSans-6c" d="M 603 4863 
L 1178 4863 
L 1178 0 
L 603 0 
L 603 4863 
z
" transform="scale(0.015625)"/>
       <path id="DejaVuSans-79" d="M 2059 -325 
Q 1816 -950 1584 -1140 
Q 1353 -1331 966 -1331 
L 506 -1331 
L 506 -850 
L 844 -850 
Q 1081 -850 1212 -737 
Q 1344 -625 1503 -206 
L 1606 56 
L 191 3500 
L 800 3500 
L 1894 763 
L 2988 3500 
L 3597 3500 
L 2059 -325 
z
" transform="scale(0.015625)"/>
      </defs>
      <use xlink:href="#DejaVuSans-5a"/>
      <use xlink:href="#DejaVuSans-65" transform="translate(68.505859 0)"/>
      <use xlink:href="#DejaVuSans-62" transform="translate(130.029297 0)"/>
      <use xlink:href="#DejaVuSans-48" transform="translate(193.505859 0)"/>
      <use xlink:href="#DejaVuSans-62" transform="translate(268.701172 0)"/>
      <use xlink:href="#DejaVuSans-20" transform="translate(332.177734 0)"/>
      <use xlink:href="#DejaVuSans-4f" transform="translate(363.964844 0)"/>
      <use xlink:href="#DejaVuSans-6e" transform="translate(442.675781 0)"/>
      <use xlink:href="#DejaVuSans-6c" transform="translate(506.054688 0)"/>
      <use xlink:href="#DejaVuSans-79" transform="translate(533.837891 0)"/>
     </g>
    </g>
    <g id="line2d_24">
     <path d="M 58.03125 37.79475 
L 74.03125 37.79475 
L 90.03125 37.79475 
" style="fill: none; stroke: #0000ff; stroke-opacity: 0.5; stroke-width: 2; stroke-linecap: square"/>
    </g>
    <g id="text_14">
     <!-- PHZ + ZebHb -->
     <g transform="translate(102.83125 43.39475) scale(0.144 -0.144)">
      <defs>
       <path id="DejaVuSans-50" d="M 1259 4147 
L 1259 2394 
L 2053 2394 
Q 2494 2394 2734 2622 
Q 2975 2850 2975 3272 
Q 2975 3691 2734 3919 
Q 2494 4147 2053 4147 
L 1259 4147 
z
M 628 4666 
L 2053 4666 
Q 2838 4666 3239 4311 
Q 3641 3956 3641 3272 
Q 3641 2581 3239 2228 
Q 2838 1875 2053 1875 
L 1259 1875 
L 1259 0 
L 628 0 
L 628 4666 
z
" transform="scale(0.015625)"/>
       <path id="DejaVuSans-2b" d="M 2944 4013 
L 2944 2272 
L 4684 2272 
L 4684 1741 
L 2944 1741 
L 2944 0 
L 2419 0 
L 2419 1741 
L 678 1741 
L 678 2272 
L 2419 2272 
L 2419 4013 
L 2944 4013 
z
" transform="scale(0.015625)"/>
      </defs>
      <use xlink:href="#DejaVuSans-50"/>
      <use xlink:href="#DejaVuSans-48" transform="translate(60.302734 0)"/>
      <use xlink:href="#DejaVuSans-5a" transform="translate(135.498047 0)"/>
      <use xlink:href="#DejaVuSans-20" transform="translate(204.003906 0)"/>
      <use xlink:href="#DejaVuSans-2b" transform="translate(235.791016 0)"/>
      <use xlink:href="#DejaVuSans-20" transform="translate(319.580078 0)"/>
      <use xlink:href="#DejaVuSans-5a" transform="translate(351.367188 0)"/>
      <use xlink:href="#DejaVuSans-65" transform="translate(419.873047 0)"/>
      <use xlink:href="#DejaVuSans-62" transform="translate(481.396484 0)"/>
      <use xlink:href="#DejaVuSans-48" transform="translate(544.873047 0)"/>
      <use xlink:href="#DejaVuSans-62" transform="translate(620.068359 0)"/>
     </g>
    </g>
    <g id="patch_7">
     <path d="M 202.331586 21.2 
L 234.331586 21.2 
L 234.331586 10 
L 202.331586 10 
z
" style="fill: #ffa500; fill-opacity: 0.3; stroke: #ffa500; stroke-opacity: 0.3; stroke-linejoin: miter"/>
    </g>
    <g id="text_15">
     <!-- 77-ASP - 86-SER -->
     <g transform="translate(247.131586 21.2) scale(0.144 -0.144)">
      <defs>
       <path id="DejaVuSans-37" d="M 525 4666 
L 3525 4666 
L 3525 4397 
L 1831 0 
L 1172 0 
L 2766 4134 
L 525 4134 
L 525 4666 
z
" transform="scale(0.015625)"/>
       <path id="DejaVuSans-2d" d="M 313 2009 
L 1997 2009 
L 1997 1497 
L 313 1497 
L 313 2009 
z
" transform="scale(0.015625)"/>
       <path id="DejaVuSans-41" d="M 2188 4044 
L 1331 1722 
L 3047 1722 
L 2188 4044 
z
M 1831 4666 
L 2547 4666 
L 4325 0 
L 3669 0 
L 3244 1197 
L 1141 1197 
L 716 0 
L 50 0 
L 1831 4666 
z
" transform="scale(0.015625)"/>
       <path id="DejaVuSans-45" d="M 628 4666 
L 3578 4666 
L 3578 4134 
L 1259 4134 
L 1259 2753 
L 3481 2753 
L 3481 2222 
L 1259 2222 
L 1259 531 
L 3634 531 
L 3634 0 
L 628 0 
L 628 4666 
z
" transform="scale(0.015625)"/>
      </defs>
      <use xlink:href="#DejaVuSans-37"/>
      <use xlink:href="#DejaVuSans-37" transform="translate(63.623047 0)"/>
      <use xlink:href="#DejaVuSans-2d" transform="translate(127.246094 0)"/>
      <use xlink:href="#DejaVuSans-41" transform="translate(161.080078 0)"/>
      <use xlink:href="#DejaVuSans-53" transform="translate(229.488281 0)"/>
      <use xlink:href="#DejaVuSans-50" transform="translate(292.964844 0)"/>
      <use xlink:href="#DejaVuSans-20" transform="translate(353.267578 0)"/>
      <use xlink:href="#DejaVuSans-2d" transform="translate(385.054688 0)"/>
      <use xlink:href="#DejaVuSans-20" transform="translate(421.138672 0)"/>
      <use xlink:href="#DejaVuSans-38" transform="translate(452.925781 0)"/>
      <use xlink:href="#DejaVuSans-36" transform="translate(516.548828 0)"/>
      <use xlink:href="#DejaVuSans-2d" transform="translate(580.171875 0)"/>
      <use xlink:href="#DejaVuSans-53" transform="translate(616.255859 0)"/>
      <use xlink:href="#DejaVuSans-45" transform="translate(679.732422 0)"/>
      <use xlink:href="#DejaVuSans-52" transform="translate(742.916016 0)"/>
     </g>
    </g>
    <g id="patch_8">
     <path d="M 202.331586 43.39475 
L 234.331586 43.39475 
L 234.331586 32.19475 
L 202.331586 32.19475 
z
" style="fill: #0000ff; fill-opacity: 0.3; stroke: #0000ff; stroke-opacity: 0.3; stroke-linejoin: miter"/>
    </g>
    <g id="text_16">
     <!-- 86-SER - 94-ARG -->
     <g transform="translate(247.131586 43.39475) scale(0.144 -0.144)">
      <defs>
       <path id="DejaVuSans-39" d="M 703 97 
L 703 672 
Q 941 559 1184 500 
Q 1428 441 1663 441 
Q 2288 441 2617 861 
Q 2947 1281 2994 2138 
Q 2813 1869 2534 1725 
Q 2256 1581 1919 1581 
Q 1219 1581 811 2004 
Q 403 2428 403 3163 
Q 403 3881 828 4315 
Q 1253 4750 1959 4750 
Q 2769 4750 3195 4129 
Q 3622 3509 3622 2328 
Q 3622 1225 3098 567 
Q 2575 -91 1691 -91 
Q 1453 -91 1209 -44 
Q 966 3 703 97 
z
M 1959 2075 
Q 2384 2075 2632 2365 
Q 2881 2656 2881 3163 
Q 2881 3666 2632 3958 
Q 2384 4250 1959 4250 
Q 1534 4250 1286 3958 
Q 1038 3666 1038 3163 
Q 1038 2656 1286 2365 
Q 1534 2075 1959 2075 
z
" transform="scale(0.015625)"/>
       <path id="DejaVuSans-47" d="M 3809 666 
L 3809 1919 
L 2778 1919 
L 2778 2438 
L 4434 2438 
L 4434 434 
Q 4069 175 3628 42 
Q 3188 -91 2688 -91 
Q 1594 -91 976 548 
Q 359 1188 359 2328 
Q 359 3472 976 4111 
Q 1594 4750 2688 4750 
Q 3144 4750 3555 4637 
Q 3966 4525 4313 4306 
L 4313 3634 
Q 3963 3931 3569 4081 
Q 3175 4231 2741 4231 
Q 1884 4231 1454 3753 
Q 1025 3275 1025 2328 
Q 1025 1384 1454 906 
Q 1884 428 2741 428 
Q 3075 428 3337 486 
Q 3600 544 3809 666 
z
" transform="scale(0.015625)"/>
      </defs>
      <use xlink:href="#DejaVuSans-38"/>
      <use xlink:href="#DejaVuSans-36" transform="translate(63.623047 0)"/>
      <use xlink:href="#DejaVuSans-2d" transform="translate(127.246094 0)"/>
      <use xlink:href="#DejaVuSans-53" transform="translate(163.330078 0)"/>
      <use xlink:href="#DejaVuSans-45" transform="translate(226.806641 0)"/>
      <use xlink:href="#DejaVuSans-52" transform="translate(289.990234 0)"/>
      <use xlink:href="#DejaVuSans-20" transform="translate(359.472656 0)"/>
      <use xlink:href="#DejaVuSans-2d" transform="translate(391.259766 0)"/>
      <use xlink:href="#DejaVuSans-20" transform="translate(427.34375 0)"/>
      <use xlink:href="#DejaVuSans-39" transform="translate(459.130859 0)"/>
      <use xlink:href="#DejaVuSans-34" transform="translate(522.753906 0)"/>
      <use xlink:href="#DejaVuSans-2d" transform="translate(586.376953 0)"/>
      <use xlink:href="#DejaVuSans-41" transform="translate(620.210938 0)"/>
      <use xlink:href="#DejaVuSans-52" transform="translate(688.619141 0)"/>
      <use xlink:href="#DejaVuSans-47" transform="translate(758.101562 0)"/>
     </g>
    </g>
    <g id="patch_9">
     <path d="M 368.522171 21.2 
L 400.522171 21.2 
L 400.522171 10 
L 368.522171 10 
z
" style="fill: #ffa500; fill-opacity: 0.3; stroke: #ffa500; stroke-opacity: 0.3; stroke-linejoin: miter"/>
    </g>
    <g id="text_17">
     <!-- 94-ARG - 99-ASN -->
     <g transform="translate(413.322171 21.2) scale(0.144 -0.144)">
      <use xlink:href="#DejaVuSans-39"/>
      <use xlink:href="#DejaVuSans-34" transform="translate(63.623047 0)"/>
      <use xlink:href="#DejaVuSans-2d" transform="translate(127.246094 0)"/>
      <use xlink:href="#DejaVuSans-41" transform="translate(161.080078 0)"/>
      <use xlink:href="#DejaVuSans-52" transform="translate(229.488281 0)"/>
      <use xlink:href="#DejaVuSans-47" transform="translate(298.970703 0)"/>
      <use xlink:href="#DejaVuSans-20" transform="translate(376.460938 0)"/>
      <use xlink:href="#DejaVuSans-2d" transform="translate(408.248047 0)"/>
      <use xlink:href="#DejaVuSans-20" transform="translate(444.332031 0)"/>
      <use xlink:href="#DejaVuSans-39" transform="translate(476.119141 0)"/>
      <use xlink:href="#DejaVuSans-39" transform="translate(539.742188 0)"/>
      <use xlink:href="#DejaVuSans-2d" transform="translate(603.365234 0)"/>
      <use xlink:href="#DejaVuSans-41" transform="translate(637.199219 0)"/>
      <use xlink:href="#DejaVuSans-53" transform="translate(705.607422 0)"/>
      <use xlink:href="#DejaVuSans-4e" transform="translate(769.083984 0)"/>
     </g>
    </g>
    <g id="patch_10">
     <path d="M 368.522171 43.39475 
L 400.522171 43.39475 
L 400.522171 32.19475 
L 368.522171 32.19475 
z
" style="fill: #0000ff; fill-opacity: 0.3; stroke: #0000ff; stroke-opacity: 0.3; stroke-linejoin: miter"/>
    </g>
    <g id="text_18">
     <!-- 57-VAL - 61-GLY -->
     <g transform="translate(413.322171 43.39475) scale(0.144 -0.144)">
      <defs>
       <path id="DejaVuSans-56" d="M 1831 0 
L 50 4666 
L 709 4666 
L 2188 738 
L 3669 4666 
L 4325 4666 
L 2547 0 
L 1831 0 
z
" transform="scale(0.015625)"/>
       <path id="DejaVuSans-4c" d="M 628 4666 
L 1259 4666 
L 1259 531 
L 3531 531 
L 3531 0 
L 628 0 
L 628 4666 
z
" transform="scale(0.015625)"/>
       <path id="DejaVuSans-59" d="M -13 4666 
L 666 4666 
L 1959 2747 
L 3244 4666 
L 3922 4666 
L 2272 2222 
L 2272 0 
L 1638 0 
L 1638 2222 
L -13 4666 
z
" transform="scale(0.015625)"/>
      </defs>
      <use xlink:href="#DejaVuSans-35"/>
      <use xlink:href="#DejaVuSans-37" transform="translate(63.623047 0)"/>
      <use xlink:href="#DejaVuSans-2d" transform="translate(127.246094 0)"/>
      <use xlink:href="#DejaVuSans-56" transform="translate(157.455078 0)"/>
      <use xlink:href="#DejaVuSans-41" transform="translate(219.488281 0)"/>
      <use xlink:href="#DejaVuSans-4c" transform="translate(287.896484 0)"/>
      <use xlink:href="#DejaVuSans-20" transform="translate(343.609375 0)"/>
      <use xlink:href="#DejaVuSans-2d" transform="translate(375.396484 0)"/>
      <use xlink:href="#DejaVuSans-20" transform="translate(411.480469 0)"/>
      <use xlink:href="#DejaVuSans-36" transform="translate(443.267578 0)"/>
      <use xlink:href="#DejaVuSans-31" transform="translate(506.890625 0)"/>
      <use xlink:href="#DejaVuSans-2d" transform="translate(570.513672 0)"/>
      <use xlink:href="#DejaVuSans-47" transform="translate(610.222656 0)"/>
      <use xlink:href="#DejaVuSans-4c" transform="translate(687.712891 0)"/>
      <use xlink:href="#DejaVuSans-59" transform="translate(730.175781 0)"/>
     </g>
    </g>
   </g>
  </g>
  <g id="axes_2">
   <g id="patch_11">
    <path d="M 51.63125 307.352478 
L 541.240171 307.352478 
L 541.240171 212.763133 
L 51.63125 212.763133 
z
" style="fill: #ffffff"/>
   </g>
   <g id="patch_12">
    <path d="M 73.886201 304.649925 
L 118.396103 304.649925 
L 118.396103 303.298717 
L 73.886201 303.298717 
z
" clip-path="url(#p56a63daa3d)" style="fill: #0000ff; opacity: 0.5"/>
   </g>
   <g id="patch_13">
    <path d="M 118.396103 304.649925 
L 162.906005 304.649925 
L 162.906005 291.408079 
L 118.396103 291.408079 
z
" clip-path="url(#p56a63daa3d)" style="fill: #0000ff; opacity: 0.5"/>
   </g>
   <g id="patch_14">
    <path d="M 162.906005 304.649925 
L 207.415907 304.649925 
L 207.415907 304.514804 
L 162.906005 304.514804 
z
" clip-path="url(#p56a63daa3d)" style="fill: #0000ff; opacity: 0.5"/>
   </g>
   <g id="patch_15">
    <path d="M 207.415907 304.649925 
L 251.925809 304.649925 
L 251.925809 304.514804 
L 207.415907 304.514804 
z
" clip-path="url(#p56a63daa3d)" style="fill: #0000ff; opacity: 0.5"/>
   </g>
   <g id="patch_16">
    <path d="M 251.925809 304.649925 
L 296.435711 304.649925 
L 296.435711 273.572123 
L 251.925809 273.572123 
z
" clip-path="url(#p56a63daa3d)" style="fill: #0000ff; opacity: 0.5"/>
   </g>
   <g id="patch_17">
    <path d="M 296.435711 304.649925 
L 340.945613 304.649925 
L 340.945613 257.627859 
L 296.435711 257.627859 
z
" clip-path="url(#p56a63daa3d)" style="fill: #0000ff; opacity: 0.5"/>
   </g>
   <g id="patch_18">
    <path d="M 340.945613 304.649925 
L 385.455514 304.649925 
L 385.455514 304.514804 
L 340.945613 304.514804 
z
" clip-path="url(#p56a63daa3d)" style="fill: #0000ff; opacity: 0.5"/>
   </g>
   <g id="patch_19">
    <path d="M 385.455514 304.649925 
L 429.965416 304.649925 
L 429.965416 288.300299 
L 385.455514 288.300299 
z
" clip-path="url(#p56a63daa3d)" style="fill: #0000ff; opacity: 0.5"/>
   </g>
   <g id="patch_20">
    <path d="M 429.965416 304.649925 
L 474.475318 304.649925 
L 474.475318 304.379684 
L 429.965416 304.379684 
z
" clip-path="url(#p56a63daa3d)" style="fill: #0000ff; opacity: 0.5"/>
   </g>
   <g id="patch_21">
    <path d="M 474.475318 304.649925 
L 518.98522 304.649925 
L 518.98522 286.003244 
L 474.475318 286.003244 
z
" clip-path="url(#p56a63daa3d)" style="fill: #0000ff; opacity: 0.5"/>
   </g>
   <g id="matplotlib.axis_3">
    <g id="xtick_9">
     <g id="line2d_25">
      <g>
       <use xlink:href="#m39af025d73" x="73.886201" y="307.352478" style="stroke: #000000; stroke-width: 2"/>
      </g>
     </g>
     <g id="line2d_26">
      <g>
       <use xlink:href="#ma7dcdea6ae" x="73.886201" y="212.763133" style="stroke: #000000; stroke-width: 2"/>
      </g>
     </g>
     <g id="text_19">
      <!-- 43-TYR -->
      <g transform="translate(22.035387 370.507984) rotate(-45) scale(0.2 -0.2)">
       <defs>
        <path id="DejaVuSans-33" d="M 2597 2516 
Q 3050 2419 3304 2112 
Q 3559 1806 3559 1356 
Q 3559 666 3084 287 
Q 2609 -91 1734 -91 
Q 1441 -91 1130 -33 
Q 819 25 488 141 
L 488 750 
Q 750 597 1062 519 
Q 1375 441 1716 441 
Q 2309 441 2620 675 
Q 2931 909 2931 1356 
Q 2931 1769 2642 2001 
Q 2353 2234 1838 2234 
L 1294 2234 
L 1294 2753 
L 1863 2753 
Q 2328 2753 2575 2939 
Q 2822 3125 2822 3475 
Q 2822 3834 2567 4026 
Q 2313 4219 1838 4219 
Q 1578 4219 1281 4162 
Q 984 4106 628 3988 
L 628 4550 
Q 988 4650 1302 4700 
Q 1616 4750 1894 4750 
Q 2613 4750 3031 4423 
Q 3450 4097 3450 3541 
Q 3450 3153 3228 2886 
Q 3006 2619 2597 2516 
z
" transform="scale(0.015625)"/>
        <path id="DejaVuSans-54" d="M -19 4666 
L 3928 4666 
L 3928 4134 
L 2272 4134 
L 2272 0 
L 1638 0 
L 1638 4134 
L -19 4134 
L -19 4666 
z
" transform="scale(0.015625)"/>
       </defs>
       <use xlink:href="#DejaVuSans-34"/>
       <use xlink:href="#DejaVuSans-33" transform="translate(63.623047 0)"/>
       <use xlink:href="#DejaVuSans-2d" transform="translate(127.246094 0)"/>
       <use xlink:href="#DejaVuSans-54" transform="translate(154.205078 0)"/>
       <use xlink:href="#DejaVuSans-59" transform="translate(215.289062 0)"/>
       <use xlink:href="#DejaVuSans-52" transform="translate(276.373047 0)"/>
      </g>
     </g>
    </g>
    <g id="xtick_10">
     <g id="line2d_27">
      <g>
       <use xlink:href="#m39af025d73" x="123.341648" y="307.352478" style="stroke: #000000; stroke-width: 2"/>
      </g>
     </g>
     <g id="line2d_28">
      <g>
       <use xlink:href="#ma7dcdea6ae" x="123.341648" y="212.763133" style="stroke: #000000; stroke-width: 2"/>
      </g>
     </g>
     <g id="text_20">
      <!-- 60-HID -->
      <g transform="translate(71.605738 370.393079) rotate(-45) scale(0.2 -0.2)">
       <defs>
        <path id="DejaVuSans-49" d="M 628 4666 
L 1259 4666 
L 1259 0 
L 628 0 
L 628 4666 
z
" transform="scale(0.015625)"/>
        <path id="DejaVuSans-44" d="M 1259 4147 
L 1259 519 
L 2022 519 
Q 2988 519 3436 956 
Q 3884 1394 3884 2338 
Q 3884 3275 3436 3711 
Q 2988 4147 2022 4147 
L 1259 4147 
z
M 628 4666 
L 1925 4666 
Q 3281 4666 3915 4102 
Q 4550 3538 4550 2338 
Q 4550 1131 3912 565 
Q 3275 0 1925 0 
L 628 0 
L 628 4666 
z
" transform="scale(0.015625)"/>
       </defs>
       <use xlink:href="#DejaVuSans-36"/>
       <use xlink:href="#DejaVuSans-30" transform="translate(63.623047 0)"/>
       <use xlink:href="#DejaVuSans-2d" transform="translate(127.246094 0)"/>
       <use xlink:href="#DejaVuSans-48" transform="translate(163.330078 0)"/>
       <use xlink:href="#DejaVuSans-49" transform="translate(238.525391 0)"/>
       <use xlink:href="#DejaVuSans-44" transform="translate(268.017578 0)"/>
      </g>
     </g>
    </g>
    <g id="xtick_11">
     <g id="line2d_29">
      <g>
       <use xlink:href="#m39af025d73" x="172.797094" y="307.352478" style="stroke: #000000; stroke-width: 2"/>
      </g>
     </g>
     <g id="line2d_30">
      <g>
       <use xlink:href="#ma7dcdea6ae" x="172.797094" y="212.763133" style="stroke: #000000; stroke-width: 2"/>
      </g>
     </g>
     <g id="text_21">
      <!-- 63-THR -->
      <g transform="translate(118.948703 372.50556) rotate(-45) scale(0.2 -0.2)">
       <use xlink:href="#DejaVuSans-36"/>
       <use xlink:href="#DejaVuSans-33" transform="translate(63.623047 0)"/>
       <use xlink:href="#DejaVuSans-2d" transform="translate(127.246094 0)"/>
       <use xlink:href="#DejaVuSans-54" transform="translate(154.205078 0)"/>
       <use xlink:href="#DejaVuSans-48" transform="translate(215.289062 0)"/>
       <use xlink:href="#DejaVuSans-52" transform="translate(290.484375 0)"/>
      </g>
     </g>
    </g>
    <g id="xtick_12">
     <g id="line2d_31">
      <g>
       <use xlink:href="#m39af025d73" x="222.252541" y="307.352478" style="stroke: #000000; stroke-width: 2"/>
      </g>
     </g>
     <g id="line2d_32">
      <g>
       <use xlink:href="#ma7dcdea6ae" x="222.252541" y="212.763133" style="stroke: #000000; stroke-width: 2"/>
      </g>
     </g>
     <g id="text_22">
      <!-- 64-ILE -->
      <g transform="translate(175.22552 365.68419) rotate(-45) scale(0.2 -0.2)">
       <use xlink:href="#DejaVuSans-36"/>
       <use xlink:href="#DejaVuSans-34" transform="translate(63.623047 0)"/>
       <use xlink:href="#DejaVuSans-2d" transform="translate(127.246094 0)"/>
       <use xlink:href="#DejaVuSans-49" transform="translate(163.330078 0)"/>
       <use xlink:href="#DejaVuSans-4c" transform="translate(192.822266 0)"/>
       <use xlink:href="#DejaVuSans-45" transform="translate(248.535156 0)"/>
      </g>
     </g>
    </g>
    <g id="xtick_13">
     <g id="line2d_33">
      <g>
       <use xlink:href="#m39af025d73" x="271.707987" y="307.352478" style="stroke: #000000; stroke-width: 2"/>
      </g>
     </g>
     <g id="line2d_34">
      <g>
       <use xlink:href="#ma7dcdea6ae" x="271.707987" y="212.763133" style="stroke: #000000; stroke-width: 2"/>
      </g>
     </g>
     <g id="text_23">
      <!-- 88-LEU -->
      <g transform="translate(218.502621 371.862535) rotate(-45) scale(0.2 -0.2)">
       <defs>
        <path id="DejaVuSans-55" d="M 556 4666 
L 1191 4666 
L 1191 1831 
Q 1191 1081 1462 751 
Q 1734 422 2344 422 
Q 2950 422 3222 751 
Q 3494 1081 3494 1831 
L 3494 4666 
L 4128 4666 
L 4128 1753 
Q 4128 841 3676 375 
Q 3225 -91 2344 -91 
Q 1459 -91 1007 375 
Q 556 841 556 1753 
L 556 4666 
z
" transform="scale(0.015625)"/>
       </defs>
       <use xlink:href="#DejaVuSans-38"/>
       <use xlink:href="#DejaVuSans-38" transform="translate(63.623047 0)"/>
       <use xlink:href="#DejaVuSans-2d" transform="translate(127.246094 0)"/>
       <use xlink:href="#DejaVuSans-4c" transform="translate(163.330078 0)"/>
       <use xlink:href="#DejaVuSans-45" transform="translate(219.042969 0)"/>
       <use xlink:href="#DejaVuSans-55" transform="translate(282.226562 0)"/>
      </g>
     </g>
    </g>
    <g id="xtick_14">
     <g id="line2d_35">
      <g>
       <use xlink:href="#m39af025d73" x="321.163434" y="307.352478" style="stroke: #000000; stroke-width: 2"/>
      </g>
     </g>
     <g id="line2d_36">
      <g>
       <use xlink:href="#ma7dcdea6ae" x="321.163434" y="212.763133" style="stroke: #000000; stroke-width: 2"/>
      </g>
     </g>
     <g id="text_24">
      <!-- 89-HID -->
      <g transform="translate(269.427524 370.393079) rotate(-45) scale(0.2 -0.2)">
       <use xlink:href="#DejaVuSans-38"/>
       <use xlink:href="#DejaVuSans-39" transform="translate(63.623047 0)"/>
       <use xlink:href="#DejaVuSans-2d" transform="translate(127.246094 0)"/>
       <use xlink:href="#DejaVuSans-48" transform="translate(163.330078 0)"/>
       <use xlink:href="#DejaVuSans-49" transform="translate(238.525391 0)"/>
       <use xlink:href="#DejaVuSans-44" transform="translate(268.017578 0)"/>
      </g>
     </g>
    </g>
    <g id="xtick_15">
     <g id="line2d_37">
      <g>
       <use xlink:href="#m39af025d73" x="370.618881" y="307.352478" style="stroke: #000000; stroke-width: 2"/>
      </g>
     </g>
     <g id="line2d_38">
      <g>
       <use xlink:href="#ma7dcdea6ae" x="370.618881" y="212.763133" style="stroke: #000000; stroke-width: 2"/>
      </g>
     </g>
     <g id="text_25">
      <!-- 91-PHE -->
      <g transform="translate(316.481018 372.795032) rotate(-45) scale(0.2 -0.2)">
       <use xlink:href="#DejaVuSans-39"/>
       <use xlink:href="#DejaVuSans-31" transform="translate(63.623047 0)"/>
       <use xlink:href="#DejaVuSans-2d" transform="translate(127.246094 0)"/>
       <use xlink:href="#DejaVuSans-50" transform="translate(163.330078 0)"/>
       <use xlink:href="#DejaVuSans-48" transform="translate(223.632812 0)"/>
       <use xlink:href="#DejaVuSans-45" transform="translate(298.828125 0)"/>
      </g>
     </g>
    </g>
    <g id="xtick_16">
     <g id="line2d_39">
      <g>
       <use xlink:href="#m39af025d73" x="420.074327" y="307.352478" style="stroke: #000000; stroke-width: 2"/>
      </g>
     </g>
     <g id="line2d_40">
      <g>
       <use xlink:href="#ma7dcdea6ae" x="420.074327" y="212.763133" style="stroke: #000000; stroke-width: 2"/>
      </g>
     </g>
     <g id="text_26">
      <!-- 93-LEU -->
      <g transform="translate(366.868961 371.862535) rotate(-45) scale(0.2 -0.2)">
       <use xlink:href="#DejaVuSans-39"/>
       <use xlink:href="#DejaVuSans-33" transform="translate(63.623047 0)"/>
       <use xlink:href="#DejaVuSans-2d" transform="translate(127.246094 0)"/>
       <use xlink:href="#DejaVuSans-4c" transform="translate(163.330078 0)"/>
       <use xlink:href="#DejaVuSans-45" transform="translate(219.042969 0)"/>
       <use xlink:href="#DejaVuSans-55" transform="translate(282.226562 0)"/>
      </g>
     </g>
    </g>
    <g id="xtick_17">
     <g id="line2d_41">
      <g>
       <use xlink:href="#m39af025d73" x="469.529774" y="307.352478" style="stroke: #000000; stroke-width: 2"/>
      </g>
     </g>
     <g id="line2d_42">
      <g>
       <use xlink:href="#ma7dcdea6ae" x="469.529774" y="212.763133" style="stroke: #000000; stroke-width: 2"/>
      </g>
     </g>
     <g id="text_27">
      <!-- 95-VAL -->
      <g transform="translate(417.994948 370.191995) rotate(-45) scale(0.2 -0.2)">
       <use xlink:href="#DejaVuSans-39"/>
       <use xlink:href="#DejaVuSans-35" transform="translate(63.623047 0)"/>
       <use xlink:href="#DejaVuSans-2d" transform="translate(127.246094 0)"/>
       <use xlink:href="#DejaVuSans-56" transform="translate(157.455078 0)"/>
       <use xlink:href="#DejaVuSans-41" transform="translate(219.488281 0)"/>
       <use xlink:href="#DejaVuSans-4c" transform="translate(287.896484 0)"/>
      </g>
     </g>
    </g>
    <g id="xtick_18">
     <g id="line2d_43">
      <g>
       <use xlink:href="#m39af025d73" x="518.98522" y="307.352478" style="stroke: #000000; stroke-width: 2"/>
      </g>
     </g>
     <g id="line2d_44">
      <g>
       <use xlink:href="#ma7dcdea6ae" x="518.98522" y="212.763133" style="stroke: #000000; stroke-width: 2"/>
      </g>
     </g>
     <g id="text_28">
      <!-- 99-ASN -->
      <g transform="translate(464.031975 373.610415) rotate(-45) scale(0.2 -0.2)">
       <use xlink:href="#DejaVuSans-39"/>
       <use xlink:href="#DejaVuSans-39" transform="translate(63.623047 0)"/>
       <use xlink:href="#DejaVuSans-2d" transform="translate(127.246094 0)"/>
       <use xlink:href="#DejaVuSans-41" transform="translate(161.080078 0)"/>
       <use xlink:href="#DejaVuSans-53" transform="translate(229.488281 0)"/>
       <use xlink:href="#DejaVuSans-4e" transform="translate(292.964844 0)"/>
      </g>
     </g>
    </g>
    <g id="text_29">
     <!-- Residue ID -->
     <g transform="translate(243.129461 395.748412) scale(0.2 -0.2)">
      <use xlink:href="#DejaVuSans-52"/>
      <use xlink:href="#DejaVuSans-65" transform="translate(64.982422 0)"/>
      <use xlink:href="#DejaVuSans-73" transform="translate(126.505859 0)"/>
      <use xlink:href="#DejaVuSans-69" transform="translate(178.605469 0)"/>
      <use xlink:href="#DejaVuSans-64" transform="translate(206.388672 0)"/>
      <use xlink:href="#DejaVuSans-75" transform="translate(269.865234 0)"/>
      <use xlink:href="#DejaVuSans-65" transform="translate(333.244141 0)"/>
      <use xlink:href="#DejaVuSans-20" transform="translate(394.767578 0)"/>
      <use xlink:href="#DejaVuSans-49" transform="translate(426.554688 0)"/>
      <use xlink:href="#DejaVuSans-44" transform="translate(456.046875 0)"/>
     </g>
    </g>
   </g>
   <g id="matplotlib.axis_4">
    <g id="ytick_3">
     <g id="line2d_45">
      <g>
       <use xlink:href="#mda61749508" x="51.63125" y="304.649925" style="stroke: #000000; stroke-width: 2"/>
      </g>
     </g>
     <g id="line2d_46">
      <g>
       <use xlink:href="#mceed3c29f6" x="541.240171" y="304.649925" style="stroke: #000000; stroke-width: 2"/>
      </g>
     </g>
     <g id="text_30">
      <!-- 0.00 -->
      <g transform="translate(3.6 312.248363) scale(0.2 -0.2)">
       <use xlink:href="#DejaVuSans-30"/>
       <use xlink:href="#DejaVuSans-2e" transform="translate(63.623047 0)"/>
       <use xlink:href="#DejaVuSans-30" transform="translate(95.410156 0)"/>
       <use xlink:href="#DejaVuSans-30" transform="translate(159.033203 0)"/>
      </g>
     </g>
    </g>
    <g id="ytick_4">
     <g id="line2d_47">
      <g>
       <use xlink:href="#mda61749508" x="51.63125" y="250.598871" style="stroke: #000000; stroke-width: 2"/>
      </g>
     </g>
     <g id="line2d_48">
      <g>
       <use xlink:href="#mceed3c29f6" x="541.240171" y="250.598871" style="stroke: #000000; stroke-width: 2"/>
      </g>
     </g>
     <g id="text_31">
      <!-- 0.02 -->
      <g transform="translate(3.6 258.197308) scale(0.2 -0.2)">
       <use xlink:href="#DejaVuSans-30"/>
       <use xlink:href="#DejaVuSans-2e" transform="translate(63.623047 0)"/>
       <use xlink:href="#DejaVuSans-30" transform="translate(95.410156 0)"/>
       <use xlink:href="#DejaVuSans-32" transform="translate(159.033203 0)"/>
      </g>
     </g>
    </g>
   </g>
   <g id="patch_22">
    <path d="M 51.63125 307.352478 
L 51.63125 212.763133 
" style="fill: none; stroke: #000000; stroke-linejoin: miter; stroke-linecap: square"/>
   </g>
   <g id="patch_23">
    <path d="M 541.240171 307.352478 
L 541.240171 212.763133 
" style="fill: none; stroke: #000000; stroke-linejoin: miter; stroke-linecap: square"/>
   </g>
   <g id="patch_24">
    <path d="M 51.63125 307.352478 
L 541.240171 307.352478 
" style="fill: none; stroke: #000000; stroke-linejoin: miter; stroke-linecap: square"/>
   </g>
   <g id="patch_25">
    <path d="M 51.63125 212.763133 
L 541.240171 212.763133 
" style="fill: none; stroke: #000000; stroke-linejoin: miter; stroke-linecap: square"/>
   </g>
   <g id="text_32">
    <!-- Hbond Occupancy -->
    <g transform="translate(61.423428 237.418942) scale(0.2 -0.2)">
     <defs>
      <path id="DejaVuSans-6f" d="M 1959 3097 
Q 1497 3097 1228 2736 
Q 959 2375 959 1747 
Q 959 1119 1226 758 
Q 1494 397 1959 397 
Q 2419 397 2687 759 
Q 2956 1122 2956 1747 
Q 2956 2369 2687 2733 
Q 2419 3097 1959 3097 
z
M 1959 3584 
Q 2709 3584 3137 3096 
Q 3566 2609 3566 1747 
Q 3566 888 3137 398 
Q 2709 -91 1959 -91 
Q 1206 -91 779 398 
Q 353 888 353 1747 
Q 353 2609 779 3096 
Q 1206 3584 1959 3584 
z
" transform="scale(0.015625)"/>
      <path id="DejaVuSans-63" d="M 3122 3366 
L 3122 2828 
Q 2878 2963 2633 3030 
Q 2388 3097 2138 3097 
Q 1578 3097 1268 2742 
Q 959 2388 959 1747 
Q 959 1106 1268 751 
Q 1578 397 2138 397 
Q 2388 397 2633 464 
Q 2878 531 3122 666 
L 3122 134 
Q 2881 22 2623 -34 
Q 2366 -91 2075 -91 
Q 1284 -91 818 406 
Q 353 903 353 1747 
Q 353 2603 823 3093 
Q 1294 3584 2113 3584 
Q 2378 3584 2631 3529 
Q 2884 3475 3122 3366 
z
" transform="scale(0.015625)"/>
      <path id="DejaVuSans-70" d="M 1159 525 
L 1159 -1331 
L 581 -1331 
L 581 3500 
L 1159 3500 
L 1159 2969 
Q 1341 3281 1617 3432 
Q 1894 3584 2278 3584 
Q 2916 3584 3314 3078 
Q 3713 2572 3713 1747 
Q 3713 922 3314 415 
Q 2916 -91 2278 -91 
Q 1894 -91 1617 61 
Q 1341 213 1159 525 
z
M 3116 1747 
Q 3116 2381 2855 2742 
Q 2594 3103 2138 3103 
Q 1681 3103 1420 2742 
Q 1159 2381 1159 1747 
Q 1159 1113 1420 752 
Q 1681 391 2138 391 
Q 2594 391 2855 752 
Q 3116 1113 3116 1747 
z
" transform="scale(0.015625)"/>
      <path id="DejaVuSans-61" d="M 2194 1759 
Q 1497 1759 1228 1600 
Q 959 1441 959 1056 
Q 959 750 1161 570 
Q 1363 391 1709 391 
Q 2188 391 2477 730 
Q 2766 1069 2766 1631 
L 2766 1759 
L 2194 1759 
z
M 3341 1997 
L 3341 0 
L 2766 0 
L 2766 531 
Q 2569 213 2275 61 
Q 1981 -91 1556 -91 
Q 1019 -91 701 211 
Q 384 513 384 1019 
Q 384 1609 779 1909 
Q 1175 2209 1959 2209 
L 2766 2209 
L 2766 2266 
Q 2766 2663 2505 2880 
Q 2244 3097 1772 3097 
Q 1472 3097 1187 3025 
Q 903 2953 641 2809 
L 641 3341 
Q 956 3463 1253 3523 
Q 1550 3584 1831 3584 
Q 2591 3584 2966 3190 
Q 3341 2797 3341 1997 
z
" transform="scale(0.015625)"/>
     </defs>
     <use xlink:href="#DejaVuSans-48"/>
     <use xlink:href="#DejaVuSans-62" transform="translate(75.195312 0)"/>
     <use xlink:href="#DejaVuSans-6f" transform="translate(138.671875 0)"/>
     <use xlink:href="#DejaVuSans-6e" transform="translate(199.853516 0)"/>
     <use xlink:href="#DejaVuSans-64" transform="translate(263.232422 0)"/>
     <use xlink:href="#DejaVuSans-20" transform="translate(326.708984 0)"/>
     <use xlink:href="#DejaVuSans-4f" transform="translate(358.496094 0)"/>
     <use xlink:href="#DejaVuSans-63" transform="translate(437.207031 0)"/>
     <use xlink:href="#DejaVuSans-63" transform="translate(492.1875 0)"/>
     <use xlink:href="#DejaVuSans-75" transform="translate(547.167969 0)"/>
     <use xlink:href="#DejaVuSans-70" transform="translate(610.546875 0)"/>
     <use xlink:href="#DejaVuSans-61" transform="translate(674.023438 0)"/>
     <use xlink:href="#DejaVuSans-6e" transform="translate(735.302734 0)"/>
     <use xlink:href="#DejaVuSans-63" transform="translate(798.681641 0)"/>
     <use xlink:href="#DejaVuSans-79" transform="translate(853.662109 0)"/>
    </g>
   </g>
  </g>
 </g>
 <defs>
  <clipPath id="p107660722b">
   <rect x="51.63125" y="54.681287" width="489.608921" height="94.589346"/>
  </clipPath>
  <clipPath id="p56a63daa3d">
   <rect x="51.63125" y="212.763133" width="489.608921" height="94.589346"/>
  </clipPath>
 </defs>
</svg>
