<?xml version="1.0" encoding="utf-8" standalone="no"?>
<!DOCTYPE svg PUBLIC "-//W3C//DTD SVG 1.1//EN"
  "http://www.w3.org/Graphics/SVG/1.1/DTD/svg11.dtd">
<svg xmlns:xlink="http://www.w3.org/1999/xlink" width="1400.948912pt" height="835.2pt" viewBox="0 0 1400.948912 835.2" xmlns="http://www.w3.org/2000/svg" version="1.1">
 <metadata>
  <rdf:RDF xmlns:dc="http://purl.org/dc/elements/1.1/" xmlns:cc="http://creativecommons.org/ns#" xmlns:rdf="http://www.w3.org/1999/02/22-rdf-syntax-ns#">
   <cc:Work>
    <dc:type rdf:resource="http://purl.org/dc/dcmitype/StillImage"/>
    <dc:date>2025-06-16T11:47:02.807487</dc:date>
    <dc:format>image/svg+xml</dc:format>
    <dc:creator>
     <cc:Agent>
      <dc:title>Matplotlib v3.10.1, https://matplotlib.org/</dc:title>
     </cc:Agent>
    </dc:creator>
   </cc:Work>
  </rdf:RDF>
 </metadata>
 <defs>
  <style type="text/css">*{stroke-linejoin: round; stroke-linecap: butt}</style>
 </defs>
 <g id="figure_1">
  <g id="patch_1">
   <path d="M 0 835.2 
L 1400.948912 835.2 
L 1400.948912 0 
L 0 0 
z
" style="fill: #ffffff"/>
  </g>
  <g id="axes_1">
   <g id="patch_2">
    <path d="M 128.03134 617.005604 
L 1393.748912 617.005604 
L 1393.748912 27.811862 
L 128.03134 27.811862 
z
" style="fill: #ffffff"/>
   </g>
   <g id="patch_3">
    <path d="M 185.563957 617.005604 
L 243.824835 617.005604 
L 243.824835 55.868707 
L 185.563957 55.868707 
z
" clip-path="url(#p671cc041ed)" style="fill: #0000ff"/>
   </g>
   <g id="patch_4">
    <path d="M 258.390054 617.005604 
L 316.650932 617.005604 
L 316.650932 56.458813 
L 258.390054 56.458813 
z
" clip-path="url(#p671cc041ed)" style="fill: #0000ff"/>
   </g>
   <g id="patch_5">
    <path d="M 331.216152 617.005604 
L 389.477029 617.005604 
L 389.477029 105.81311 
L 331.216152 105.81311 
z
" clip-path="url(#p671cc041ed)" style="fill: #0000ff"/>
   </g>
   <g id="patch_6">
    <path d="M 404.042249 617.005604 
L 462.303127 617.005604 
L 462.303127 122.497008 
L 404.042249 122.497008 
z
" clip-path="url(#p671cc041ed)" style="fill: #0000ff"/>
   </g>
   <g id="patch_7">
    <path d="M 476.868346 617.005604 
L 535.129224 617.005604 
L 535.129224 483.963587 
L 476.868346 483.963587 
z
" clip-path="url(#p671cc041ed)" style="fill: #0000ff"/>
   </g>
   <g id="patch_8">
    <path d="M 549.694444 617.005604 
L 607.955321 617.005604 
L 607.955321 544.476246 
L 549.694444 544.476246 
z
" clip-path="url(#p671cc041ed)" style="fill: #0000ff"/>
   </g>
   <g id="patch_9">
    <path d="M 622.520541 617.005604 
L 680.781419 617.005604 
L 680.781419 566.900264 
L 622.520541 566.900264 
z
" clip-path="url(#p671cc041ed)" style="fill: #0000ff"/>
   </g>
   <g id="patch_10">
    <path d="M 695.346638 617.005604 
L 753.607516 617.005604 
L 753.607516 586.53469 
L 695.346638 586.53469 
z
" clip-path="url(#p671cc041ed)" style="fill: #0000ff"/>
   </g>
   <g id="patch_11">
    <path d="M 768.172736 617.005604 
L 826.433614 617.005604 
L 826.433614 587.178442 
L 768.172736 587.178442 
z
" clip-path="url(#p671cc041ed)" style="fill: #0000ff"/>
   </g>
   <g id="patch_12">
    <path d="M 840.998833 617.005604 
L 899.259711 617.005604 
L 899.259711 588.197716 
L 840.998833 588.197716 
z
" clip-path="url(#p671cc041ed)" style="fill: #0000ff"/>
   </g>
   <g id="patch_13">
    <path d="M 913.82493 617.005604 
L 972.085808 617.005604 
L 972.085808 588.626884 
L 913.82493 588.626884 
z
" clip-path="url(#p671cc041ed)" style="fill: #0000ff"/>
   </g>
   <g id="patch_14">
    <path d="M 986.651028 617.005604 
L 1044.911906 617.005604 
L 1044.911906 599.195141 
L 986.651028 599.195141 
z
" clip-path="url(#p671cc041ed)" style="fill: #0000ff"/>
   </g>
   <g id="patch_15">
    <path d="M 1059.477125 617.005604 
L 1117.738003 617.005604 
L 1117.738003 599.195141 
L 1059.477125 599.195141 
z
" clip-path="url(#p671cc041ed)" style="fill: #0000ff"/>
   </g>
   <g id="patch_16">
    <path d="M 1132.303222 617.005604 
L 1190.5641 617.005604 
L 1190.5641 612.177466 
L 1132.303222 612.177466 
z
" clip-path="url(#p671cc041ed)" style="fill: #0000ff"/>
   </g>
   <g id="patch_17">
    <path d="M 1205.12932 617.005604 
L 1263.390198 617.005604 
L 1263.390198 612.445696 
L 1205.12932 612.445696 
z
" clip-path="url(#p671cc041ed)" style="fill: #0000ff"/>
   </g>
   <g id="patch_18">
    <path d="M 1277.955417 617.005604 
L 1336.216295 617.005604 
L 1336.216295 613.357678 
L 1277.955417 613.357678 
z
" clip-path="url(#p671cc041ed)" style="fill: #0000ff"/>
   </g>
   <g id="matplotlib.axis_1">
    <g id="xtick_1">
     <g id="line2d_1">
      <defs>
       <path id="m2a6071e17d" d="M 0 0 
L 0 -3.5 
" style="stroke: #000000; stroke-width: 1.6"/>
      </defs>
      <g>
       <use xlink:href="#m2a6071e17d" x="214.694396" y="617.005604" style="stroke: #000000; stroke-width: 1.6"/>
      </g>
     </g>
     <g id="line2d_2">
      <defs>
       <path id="m18770199e8" d="M 0 0 
L 0 3.5 
" style="stroke: #000000; stroke-width: 1.6"/>
      </defs>
      <g>
       <use xlink:href="#m18770199e8" x="214.694396" y="27.811862" style="stroke: #000000; stroke-width: 1.6"/>
      </g>
     </g>
     <g id="text_1">
      <!-- (107-GLN)NE2- -HE21::O2(VIA) -->
      <g transform="translate(15.810122 824.869045) rotate(-45) scale(0.2 -0.2)">
       <defs>
        <path id="CMTT12-28" d="M 2739 -353 
C 2739 -270 2694 -245 2605 -181 
C 1722 422 1504 1329 1504 1945 
C 1504 2548 1709 3462 2605 4078 
C 2694 4141 2739 4167 2739 4249 
C 2739 4313 2707 4416 2554 4416 
C 2394 4416 1920 4046 1626 3634 
C 1267 3138 1088 2548 1088 1945 
C 1088 1241 1344 650 1613 276 
C 1907 -131 2374 -519 2554 -519 
C 2707 -519 2739 -410 2739 -353 
z
" transform="scale(0.015625)"/>
        <path id="CMTT12-31" d="M 1946 3705 
C 1946 3801 1946 3968 1760 3968 
C 1651 3968 1613 3910 1574 3827 
C 1453 3551 1242 3212 902 3187 
C 806 3180 672 3168 672 3001 
C 672 2892 736 2816 877 2816 
C 1235 2816 1510 3084 1530 3097 
L 1530 371 
L 966 371 
C 877 371 704 371 704 185 
C 704 0 877 0 966 0 
L 2509 0 
C 2598 0 2771 0 2771 185 
C 2771 371 2598 371 2509 371 
L 1946 371 
L 1946 3705 
z
" transform="scale(0.015625)"/>
        <path id="CMTT12-30" d="M 2970 1948 
C 2970 3127 2336 3968 1645 3968 
C 947 3968 320 3114 320 1955 
C 320 776 954 -64 1645 -64 
C 2342 -64 2970 788 2970 1948 
z
M 1645 307 
C 1139 307 736 1074 736 2018 
C 736 2962 1178 3596 1645 3596 
C 2112 3596 2554 2962 2554 2018 
C 2554 1080 2150 307 1645 307 
z
" transform="scale(0.015625)"/>
        <path id="CMTT12-37" d="M 2394 3532 
C 1146 2157 1075 636 1075 223 
C 1075 140 1075 -64 1286 -64 
C 1485 -64 1491 134 1491 223 
C 1510 1470 2035 2654 2918 3545 
C 2989 3609 3014 3635 3014 3718 
C 3014 3904 2848 3904 2758 3904 
L 672 3904 
C 672 3910 634 4000 486 4000 
C 275 4000 275 3859 275 3737 
L 275 3507 
C 275 3392 275 3246 480 3246 
C 691 3246 691 3379 691 3532 
L 2394 3532 
z
" transform="scale(0.015625)"/>
        <path id="CMTT12-2d" d="M 2650 1759 
C 2733 1759 2938 1759 2938 1964 
C 2938 2176 2739 2176 2650 2176 
L 640 2176 
C 557 2176 352 2176 352 1971 
C 352 1759 550 1759 640 1759 
L 2650 1759 
z
" transform="scale(0.015625)"/>
        <path id="CMTT12-47" d="M 2816 1356 
C 2944 1356 3110 1356 3110 1542 
C 3110 1728 2938 1728 2848 1728 
L 2131 1728 
C 2042 1728 1869 1728 1869 1542 
C 1869 1356 2042 1356 2131 1356 
L 2394 1356 
C 2362 971 2189 307 1664 307 
C 1146 307 653 996 653 1949 
C 653 2925 1165 3596 1670 3596 
C 1978 3596 2317 3356 2400 2722 
C 2419 2564 2541 2564 2605 2564 
C 2816 2564 2816 2678 2816 2804 
L 2816 3724 
C 2816 3827 2816 3968 2637 3968 
C 2528 3968 2490 3897 2470 3865 
L 2387 3660 
C 2176 3852 1920 3968 1638 3968 
C 883 3968 237 3109 237 1956 
C 237 781 890 -64 1638 -64 
C 1914 -64 2182 51 2400 288 
C 2400 121 2400 0 2611 0 
C 2816 0 2816 134 2816 256 
L 2816 1356 
z
" transform="scale(0.015625)"/>
        <path id="CMTT12-4c" d="M 1107 3532 
L 1440 3532 
C 1530 3532 1696 3532 1696 3718 
C 1696 3904 1530 3904 1440 3904 
L 480 3904 
C 390 3904 218 3904 218 3718 
C 218 3532 390 3532 480 3532 
L 691 3532 
L 691 371 
L 480 371 
C 390 371 218 371 218 185 
C 218 0 390 0 480 0 
L 2810 0 
C 3021 0 3066 57 3066 262 
L 3066 786 
C 3066 894 3066 1041 2861 1041 
C 2650 1041 2650 901 2650 786 
L 2650 371 
L 1107 371 
L 1107 3532 
z
" transform="scale(0.015625)"/>
        <path id="CMTT12-4e" d="M 1197 3686 
C 1120 3904 992 3904 858 3904 
L 442 3904 
C 346 3904 186 3904 186 3718 
C 186 3532 352 3532 442 3532 
L 582 3532 
L 582 371 
L 442 371 
C 352 371 186 371 186 185 
C 186 0 346 0 442 0 
L 1082 0 
C 1171 0 1344 0 1344 185 
C 1344 371 1171 371 1082 371 
L 941 371 
L 941 3462 
L 947 3462 
C 966 3392 1024 3226 1139 2900 
L 2093 217 
C 2170 0 2298 0 2438 0 
C 2630 0 2707 19 2707 262 
L 2707 3532 
L 2848 3532 
C 2938 3532 3104 3532 3104 3718 
C 3104 3904 2944 3904 2848 3904 
L 2208 3904 
C 2118 3904 1946 3904 1946 3718 
C 1946 3532 2118 3532 2208 3532 
L 2349 3532 
L 2349 441 
L 2342 441 
C 2323 511 2266 677 2150 1003 
L 1197 3686 
z
" transform="scale(0.015625)"/>
        <path id="CMTT12-29" d="M 2202 1945 
C 2202 2440 2080 3081 1619 3697 
C 1402 3989 928 4416 736 4416 
C 589 4416 550 4307 550 4249 
C 550 4173 595 4141 710 4065 
C 1491 3519 1786 2669 1786 1951 
C 1786 1380 1600 447 685 -181 
C 602 -239 550 -270 550 -353 
C 550 -410 589 -519 736 -519 
C 896 -519 1370 -150 1664 263 
C 2035 783 2202 1380 2202 1945 
z
" transform="scale(0.015625)"/>
        <path id="CMTT12-45" d="M 1030 1856 
L 1875 1856 
C 1875 1629 1875 1507 2086 1507 
C 2291 1507 2291 1655 2291 1771 
L 2291 2309 
C 2291 2422 2291 2567 2086 2567 
C 1875 2567 1875 2447 1875 2227 
L 1030 2227 
L 1030 3532 
L 2598 3532 
L 2598 3223 
C 2598 3110 2598 2965 2803 2965 
C 3014 2965 3014 3103 3014 3223 
L 3014 3641 
C 3014 3839 2976 3904 2758 3904 
L 442 3904 
C 352 3904 179 3904 179 3718 
C 179 3532 352 3532 442 3532 
L 614 3532 
L 614 371 
L 442 371 
C 352 371 179 371 179 185 
C 179 0 352 0 442 0 
L 2899 0 
C 3110 0 3155 57 3155 262 
L 3155 784 
C 3155 900 3155 1049 2950 1049 
C 2739 1049 2739 906 2739 784 
L 2739 371 
L 1030 371 
L 1030 1856 
z
" transform="scale(0.015625)"/>
        <path id="CMTT12-32" d="M 2227 1401 
C 2317 1478 2963 2025 2963 2731 
C 2963 3456 2362 3968 1562 3968 
C 819 3968 326 3412 326 2877 
C 326 2610 550 2591 589 2591 
C 704 2591 845 2680 845 2852 
C 845 2973 800 3011 768 3037 
C 858 3374 1152 3596 1523 3596 
C 2067 3596 2547 3285 2547 2731 
C 2547 2235 2170 1853 1824 1554 
L 416 339 
C 346 281 326 262 326 185 
C 326 0 499 0 589 0 
L 2822 0 
C 2963 38 2963 166 2963 262 
L 2963 396 
C 2963 511 2963 657 2758 657 
C 2547 657 2547 523 2547 371 
L 1005 371 
L 2227 1401 
z
" transform="scale(0.015625)"/>
        <path id="CMTT12-48" d="M 2739 3532 
L 2880 3532 
C 2970 3532 3136 3532 3136 3718 
C 3136 3904 2976 3904 2880 3904 
L 2182 3904 
C 2093 3904 1920 3904 1920 3718 
C 1920 3532 2093 3532 2182 3532 
L 2323 3532 
L 2323 2227 
L 966 2227 
L 966 3532 
L 1107 3532 
C 1197 3532 1370 3532 1370 3718 
C 1370 3904 1197 3904 1107 3904 
L 410 3904 
C 314 3904 154 3904 154 3718 
C 154 3532 320 3532 410 3532 
L 550 3532 
L 550 371 
L 410 371 
C 320 371 154 371 154 185 
C 154 0 314 0 410 0 
L 1107 0 
C 1197 0 1370 0 1370 185 
C 1370 371 1197 371 1107 371 
L 966 371 
L 966 1856 
L 2323 1856 
L 2323 371 
L 2182 371 
C 2093 371 1920 371 1920 185 
C 1920 0 2093 0 2182 0 
L 2880 0 
C 2976 0 3136 0 3136 185 
C 3136 371 2970 371 2880 371 
L 2739 371 
L 2739 3532 
z
" transform="scale(0.015625)"/>
        <path id="CMTT12-3a" d="M 2010 2387 
C 2010 2598 1837 2752 1651 2752 
C 1446 2752 1286 2591 1286 2387 
C 1286 2195 1453 2028 1645 2028 
C 1856 2028 2010 2201 2010 2387 
z
M 2010 358 
C 2010 569 1837 723 1651 723 
C 1446 723 1286 563 1286 358 
C 1286 166 1453 0 1645 0 
C 1856 0 2010 172 2010 358 
z
" transform="scale(0.015625)"/>
        <path id="CMTT12-4f" d="M 2938 1948 
C 2938 3795 2803 3968 1645 3968 
C 486 3968 352 3795 352 1955 
C 352 108 486 -64 1645 -64 
C 2803 -64 2938 108 2938 1948 
z
M 1645 307 
C 1062 307 922 459 851 750 
C 768 1074 768 1644 768 2005 
C 768 2411 768 2861 838 3165 
C 928 3514 1120 3596 1645 3596 
C 2150 3596 2355 3520 2445 3184 
C 2522 2886 2522 2392 2522 2005 
C 2522 1612 2522 1124 2451 782 
C 2381 459 2240 307 1645 307 
z
" transform="scale(0.015625)"/>
        <path id="CMTT12-56" d="M 2829 3532 
C 3027 3532 3174 3532 3174 3718 
C 3174 3904 3008 3904 2918 3904 
L 2317 3904 
C 2227 3904 2054 3904 2054 3718 
C 2054 3532 2208 3532 2400 3532 
L 1882 1465 
C 1798 1139 1690 691 1651 428 
L 1645 428 
C 1606 678 1536 947 1472 1209 
L 890 3532 
C 1082 3532 1235 3532 1235 3718 
C 1235 3904 1062 3904 973 3904 
L 371 3904 
C 282 3904 115 3904 115 3718 
C 115 3532 262 3532 454 3532 
L 461 3532 
L 1312 166 
C 1370 -64 1504 -64 1645 -64 
C 1786 -64 1914 -64 1971 153 
L 2829 3532 
z
" transform="scale(0.015625)"/>
        <path id="CMTT12-49" d="M 1856 3532 
L 2509 3532 
C 2598 3532 2765 3532 2765 3718 
C 2765 3904 2598 3904 2509 3904 
L 787 3904 
C 698 3904 531 3904 531 3718 
C 531 3532 698 3532 787 3532 
L 1440 3532 
L 1440 371 
L 787 371 
C 698 371 531 371 531 185 
C 531 0 698 0 787 0 
L 2509 0 
C 2598 0 2765 0 2765 185 
C 2765 371 2598 371 2509 371 
L 1856 371 
L 1856 3532 
z
" transform="scale(0.015625)"/>
        <path id="CMTT12-41" d="M 1971 3800 
C 1920 4032 1792 4032 1645 4032 
C 1446 4032 1370 4006 1325 3800 
L 531 371 
C 320 371 173 371 173 185 
C 173 0 346 0 435 0 
L 1050 0 
C 1139 0 1312 0 1312 185 
C 1312 371 1158 371 960 371 
L 1126 1088 
L 2163 1088 
L 2330 371 
C 2131 371 1978 371 1978 185 
C 1978 0 2150 0 2240 0 
L 2854 0 
C 2944 0 3117 0 3117 185 
C 3117 371 2970 371 2758 371 
L 1971 3800 
z
M 1210 1459 
C 1254 1653 1606 3184 1638 3495 
L 1645 3495 
C 1664 3346 1754 2950 1754 2944 
L 2080 1459 
L 1210 1459 
z
" transform="scale(0.015625)"/>
       </defs>
       <use xlink:href="#CMTT12-28" transform="scale(0.996264)"/>
       <use xlink:href="#CMTT12-31" transform="translate(51.266111 0) scale(0.996264)"/>
       <use xlink:href="#CMTT12-30" transform="translate(102.532222 0) scale(0.996264)"/>
       <use xlink:href="#CMTT12-37" transform="translate(153.798333 0) scale(0.996264)"/>
       <use xlink:href="#CMTT12-2d" transform="translate(205.064443 0) scale(0.996264)"/>
       <use xlink:href="#CMTT12-47" transform="translate(256.330554 0) scale(0.996264)"/>
       <use xlink:href="#CMTT12-4c" transform="translate(307.596665 0) scale(0.996264)"/>
       <use xlink:href="#CMTT12-4e" transform="translate(358.862776 0) scale(0.996264)"/>
       <use xlink:href="#CMTT12-29" transform="translate(410.128887 0) scale(0.996264)"/>
       <use xlink:href="#CMTT12-4e" transform="translate(461.394998 0) scale(0.996264)"/>
       <use xlink:href="#CMTT12-45" transform="translate(512.661108 0) scale(0.996264)"/>
       <use xlink:href="#CMTT12-32" transform="translate(563.927219 0) scale(0.996264)"/>
       <use xlink:href="#CMTT12-2d" transform="translate(615.19333 0) scale(0.996264)"/>
       <use xlink:href="#CMTT12-2d" transform="translate(666.459441 0) scale(0.996264)"/>
       <use xlink:href="#CMTT12-48" transform="translate(717.725552 0) scale(0.996264)"/>
       <use xlink:href="#CMTT12-45" transform="translate(768.991663 0) scale(0.996264)"/>
       <use xlink:href="#CMTT12-32" transform="translate(820.257774 0) scale(0.996264)"/>
       <use xlink:href="#CMTT12-31" transform="translate(871.523884 0) scale(0.996264)"/>
       <use xlink:href="#CMTT12-3a" transform="translate(922.789995 0) scale(0.996264)"/>
       <use xlink:href="#CMTT12-3a" transform="translate(974.056106 0) scale(0.996264)"/>
       <use xlink:href="#CMTT12-4f" transform="translate(1025.322217 0) scale(0.996264)"/>
       <use xlink:href="#CMTT12-32" transform="translate(1076.588328 0) scale(0.996264)"/>
       <use xlink:href="#CMTT12-28" transform="translate(1127.854439 0) scale(0.996264)"/>
       <use xlink:href="#CMTT12-56" transform="translate(1179.12055 0) scale(0.996264)"/>
       <use xlink:href="#CMTT12-49" transform="translate(1230.38666 0) scale(0.996264)"/>
       <use xlink:href="#CMTT12-41" transform="translate(1281.652771 0) scale(0.996264)"/>
       <use xlink:href="#CMTT12-29" transform="translate(1332.918882 0) scale(0.996264)"/>
      </g>
     </g>
    </g>
    <g id="xtick_2">
     <g id="line2d_3">
      <g>
       <use xlink:href="#m2a6071e17d" x="287.520493" y="617.005604" style="stroke: #000000; stroke-width: 1.6"/>
      </g>
     </g>
     <g id="line2d_4">
      <g>
       <use xlink:href="#m18770199e8" x="287.520493" y="27.811862" style="stroke: #000000; stroke-width: 1.6"/>
      </g>
     </g>
     <g id="text_2">
      <!-- (107-GLN)NE2- -HE22::O2(VIA) -->
      <g transform="translate(88.63622 824.869045) rotate(-45) scale(0.2 -0.2)">
       <use xlink:href="#CMTT12-28" transform="scale(0.996264)"/>
       <use xlink:href="#CMTT12-31" transform="translate(51.266111 0) scale(0.996264)"/>
       <use xlink:href="#CMTT12-30" transform="translate(102.532222 0) scale(0.996264)"/>
       <use xlink:href="#CMTT12-37" transform="translate(153.798333 0) scale(0.996264)"/>
       <use xlink:href="#CMTT12-2d" transform="translate(205.064443 0) scale(0.996264)"/>
       <use xlink:href="#CMTT12-47" transform="translate(256.330554 0) scale(0.996264)"/>
       <use xlink:href="#CMTT12-4c" transform="translate(307.596665 0) scale(0.996264)"/>
       <use xlink:href="#CMTT12-4e" transform="translate(358.862776 0) scale(0.996264)"/>
       <use xlink:href="#CMTT12-29" transform="translate(410.128887 0) scale(0.996264)"/>
       <use xlink:href="#CMTT12-4e" transform="translate(461.394998 0) scale(0.996264)"/>
       <use xlink:href="#CMTT12-45" transform="translate(512.661108 0) scale(0.996264)"/>
       <use xlink:href="#CMTT12-32" transform="translate(563.927219 0) scale(0.996264)"/>
       <use xlink:href="#CMTT12-2d" transform="translate(615.19333 0) scale(0.996264)"/>
       <use xlink:href="#CMTT12-2d" transform="translate(666.459441 0) scale(0.996264)"/>
       <use xlink:href="#CMTT12-48" transform="translate(717.725552 0) scale(0.996264)"/>
       <use xlink:href="#CMTT12-45" transform="translate(768.991663 0) scale(0.996264)"/>
       <use xlink:href="#CMTT12-32" transform="translate(820.257774 0) scale(0.996264)"/>
       <use xlink:href="#CMTT12-32" transform="translate(871.523884 0) scale(0.996264)"/>
       <use xlink:href="#CMTT12-3a" transform="translate(922.789995 0) scale(0.996264)"/>
       <use xlink:href="#CMTT12-3a" transform="translate(974.056106 0) scale(0.996264)"/>
       <use xlink:href="#CMTT12-4f" transform="translate(1025.322217 0) scale(0.996264)"/>
       <use xlink:href="#CMTT12-32" transform="translate(1076.588328 0) scale(0.996264)"/>
       <use xlink:href="#CMTT12-28" transform="translate(1127.854439 0) scale(0.996264)"/>
       <use xlink:href="#CMTT12-56" transform="translate(1179.12055 0) scale(0.996264)"/>
       <use xlink:href="#CMTT12-49" transform="translate(1230.38666 0) scale(0.996264)"/>
       <use xlink:href="#CMTT12-41" transform="translate(1281.652771 0) scale(0.996264)"/>
       <use xlink:href="#CMTT12-29" transform="translate(1332.918882 0) scale(0.996264)"/>
      </g>
     </g>
    </g>
    <g id="xtick_3">
     <g id="line2d_5">
      <g>
       <use xlink:href="#m2a6071e17d" x="360.34659" y="617.005604" style="stroke: #000000; stroke-width: 1.6"/>
      </g>
     </g>
     <g id="line2d_6">
      <g>
       <use xlink:href="#m18770199e8" x="360.34659" y="27.811862" style="stroke: #000000; stroke-width: 1.6"/>
      </g>
     </g>
     <g id="text_3">
      <!-- (107-GLN)NE2- -HE21::O3(VIA) -->
      <g transform="translate(161.462317 824.869045) rotate(-45) scale(0.2 -0.2)">
       <defs>
        <path id="CMTT12-33" d="M 1638 1920 
C 2304 1920 2598 1458 2598 1116 
C 2598 699 2227 307 1664 307 
C 1024 307 736 648 736 737 
C 736 749 742 762 749 768 
C 774 813 794 863 794 920 
C 794 1053 691 1173 538 1173 
C 403 1173 275 1091 275 895 
C 275 345 883 -64 1664 -64 
C 2470 -64 3014 509 3014 1110 
C 3014 1432 2835 1881 2272 2124 
C 2662 2367 2835 2747 2835 3077 
C 2835 3552 2355 3968 1664 3968 
C 954 3968 454 3660 454 3191 
C 454 2982 614 2918 717 2918 
C 832 2918 973 3007 973 3178 
C 973 3279 922 3336 922 3343 
C 1114 3584 1555 3596 1664 3596 
C 2099 3596 2419 3368 2419 3070 
C 2419 2887 2298 2361 1626 2316 
C 1389 2304 1286 2291 1261 2291 
C 1133 2278 1101 2195 1101 2105 
C 1101 1920 1235 1920 1344 1920 
L 1638 1920 
z
" transform="scale(0.015625)"/>
       </defs>
       <use xlink:href="#CMTT12-28" transform="scale(0.996264)"/>
       <use xlink:href="#CMTT12-31" transform="translate(51.266111 0) scale(0.996264)"/>
       <use xlink:href="#CMTT12-30" transform="translate(102.532222 0) scale(0.996264)"/>
       <use xlink:href="#CMTT12-37" transform="translate(153.798333 0) scale(0.996264)"/>
       <use xlink:href="#CMTT12-2d" transform="translate(205.064443 0) scale(0.996264)"/>
       <use xlink:href="#CMTT12-47" transform="translate(256.330554 0) scale(0.996264)"/>
       <use xlink:href="#CMTT12-4c" transform="translate(307.596665 0) scale(0.996264)"/>
       <use xlink:href="#CMTT12-4e" transform="translate(358.862776 0) scale(0.996264)"/>
       <use xlink:href="#CMTT12-29" transform="translate(410.128887 0) scale(0.996264)"/>
       <use xlink:href="#CMTT12-4e" transform="translate(461.394998 0) scale(0.996264)"/>
       <use xlink:href="#CMTT12-45" transform="translate(512.661108 0) scale(0.996264)"/>
       <use xlink:href="#CMTT12-32" transform="translate(563.927219 0) scale(0.996264)"/>
       <use xlink:href="#CMTT12-2d" transform="translate(615.19333 0) scale(0.996264)"/>
       <use xlink:href="#CMTT12-2d" transform="translate(666.459441 0) scale(0.996264)"/>
       <use xlink:href="#CMTT12-48" transform="translate(717.725552 0) scale(0.996264)"/>
       <use xlink:href="#CMTT12-45" transform="translate(768.991663 0) scale(0.996264)"/>
       <use xlink:href="#CMTT12-32" transform="translate(820.257774 0) scale(0.996264)"/>
       <use xlink:href="#CMTT12-31" transform="translate(871.523884 0) scale(0.996264)"/>
       <use xlink:href="#CMTT12-3a" transform="translate(922.789995 0) scale(0.996264)"/>
       <use xlink:href="#CMTT12-3a" transform="translate(974.056106 0) scale(0.996264)"/>
       <use xlink:href="#CMTT12-4f" transform="translate(1025.322217 0) scale(0.996264)"/>
       <use xlink:href="#CMTT12-33" transform="translate(1076.588328 0) scale(0.996264)"/>
       <use xlink:href="#CMTT12-28" transform="translate(1127.854439 0) scale(0.996264)"/>
       <use xlink:href="#CMTT12-56" transform="translate(1179.12055 0) scale(0.996264)"/>
       <use xlink:href="#CMTT12-49" transform="translate(1230.38666 0) scale(0.996264)"/>
       <use xlink:href="#CMTT12-41" transform="translate(1281.652771 0) scale(0.996264)"/>
       <use xlink:href="#CMTT12-29" transform="translate(1332.918882 0) scale(0.996264)"/>
      </g>
     </g>
    </g>
    <g id="xtick_4">
     <g id="line2d_7">
      <g>
       <use xlink:href="#m2a6071e17d" x="433.172688" y="617.005604" style="stroke: #000000; stroke-width: 1.6"/>
      </g>
     </g>
     <g id="line2d_8">
      <g>
       <use xlink:href="#m18770199e8" x="433.172688" y="27.811862" style="stroke: #000000; stroke-width: 1.6"/>
      </g>
     </g>
     <g id="text_4">
      <!-- (107-GLN)NE2- -HE22::O3(VIA) -->
      <g transform="translate(234.288414 824.869045) rotate(-45) scale(0.2 -0.2)">
       <use xlink:href="#CMTT12-28" transform="scale(0.996264)"/>
       <use xlink:href="#CMTT12-31" transform="translate(51.266111 0) scale(0.996264)"/>
       <use xlink:href="#CMTT12-30" transform="translate(102.532222 0) scale(0.996264)"/>
       <use xlink:href="#CMTT12-37" transform="translate(153.798333 0) scale(0.996264)"/>
       <use xlink:href="#CMTT12-2d" transform="translate(205.064443 0) scale(0.996264)"/>
       <use xlink:href="#CMTT12-47" transform="translate(256.330554 0) scale(0.996264)"/>
       <use xlink:href="#CMTT12-4c" transform="translate(307.596665 0) scale(0.996264)"/>
       <use xlink:href="#CMTT12-4e" transform="translate(358.862776 0) scale(0.996264)"/>
       <use xlink:href="#CMTT12-29" transform="translate(410.128887 0) scale(0.996264)"/>
       <use xlink:href="#CMTT12-4e" transform="translate(461.394998 0) scale(0.996264)"/>
       <use xlink:href="#CMTT12-45" transform="translate(512.661108 0) scale(0.996264)"/>
       <use xlink:href="#CMTT12-32" transform="translate(563.927219 0) scale(0.996264)"/>
       <use xlink:href="#CMTT12-2d" transform="translate(615.19333 0) scale(0.996264)"/>
       <use xlink:href="#CMTT12-2d" transform="translate(666.459441 0) scale(0.996264)"/>
       <use xlink:href="#CMTT12-48" transform="translate(717.725552 0) scale(0.996264)"/>
       <use xlink:href="#CMTT12-45" transform="translate(768.991663 0) scale(0.996264)"/>
       <use xlink:href="#CMTT12-32" transform="translate(820.257774 0) scale(0.996264)"/>
       <use xlink:href="#CMTT12-32" transform="translate(871.523884 0) scale(0.996264)"/>
       <use xlink:href="#CMTT12-3a" transform="translate(922.789995 0) scale(0.996264)"/>
       <use xlink:href="#CMTT12-3a" transform="translate(974.056106 0) scale(0.996264)"/>
       <use xlink:href="#CMTT12-4f" transform="translate(1025.322217 0) scale(0.996264)"/>
       <use xlink:href="#CMTT12-33" transform="translate(1076.588328 0) scale(0.996264)"/>
       <use xlink:href="#CMTT12-28" transform="translate(1127.854439 0) scale(0.996264)"/>
       <use xlink:href="#CMTT12-56" transform="translate(1179.12055 0) scale(0.996264)"/>
       <use xlink:href="#CMTT12-49" transform="translate(1230.38666 0) scale(0.996264)"/>
       <use xlink:href="#CMTT12-41" transform="translate(1281.652771 0) scale(0.996264)"/>
       <use xlink:href="#CMTT12-29" transform="translate(1332.918882 0) scale(0.996264)"/>
      </g>
     </g>
    </g>
    <g id="xtick_5">
     <g id="line2d_9">
      <g>
       <use xlink:href="#m2a6071e17d" x="505.998785" y="617.005604" style="stroke: #000000; stroke-width: 1.6"/>
      </g>
     </g>
     <g id="line2d_10">
      <g>
       <use xlink:href="#m18770199e8" x="505.998785" y="27.811862" style="stroke: #000000; stroke-width: 1.6"/>
      </g>
     </g>
     <g id="text_5">
      <!-- (129-ARG)NE- -HE::O2(VIA) -->
      <g transform="translate(328.86488 803.118677) rotate(-45) scale(0.2 -0.2)">
       <defs>
        <path id="CMTT12-39" d="M 2528 1766 
C 2464 925 1958 307 1357 307 
C 1203 307 1024 325 909 432 
C 941 469 960 525 960 582 
C 960 700 870 831 704 831 
C 538 831 442 713 442 569 
C 442 256 672 -64 1350 -64 
C 2202 -64 2950 750 2950 1976 
C 2950 3577 2214 3968 1664 3968 
C 966 3968 339 3424 339 2659 
C 339 1906 896 1350 1562 1350 
C 1914 1350 2272 1484 2528 1766 
z
M 1606 1728 
C 1107 1728 755 2155 755 2659 
C 755 3220 1197 3596 1664 3596 
C 2195 3596 2374 3041 2432 2856 
C 2438 2837 2438 2825 2458 2671 
C 2464 2633 2477 2512 2477 2474 
C 2477 2085 2112 1728 1606 1728 
z
" transform="scale(0.015625)"/>
        <path id="CMTT12-52" d="M 2176 1964 
C 2528 2169 2720 2508 2720 2847 
C 2720 3369 2253 3904 1498 3904 
L 410 3904 
C 314 3904 154 3904 154 3718 
C 154 3532 320 3532 410 3532 
L 550 3532 
L 550 371 
L 410 371 
C 320 371 154 371 154 185 
C 154 0 314 0 410 0 
L 1107 0 
C 1197 0 1370 0 1370 185 
C 1370 371 1197 371 1107 371 
L 966 371 
L 966 1792 
L 1472 1792 
C 1587 1792 1786 1792 1990 1612 
C 2138 1477 2138 1329 2138 1052 
C 2138 602 2138 416 2259 198 
C 2362 32 2528 -64 2726 -64 
C 3149 -64 3277 377 3277 609 
C 3277 737 3219 821 3066 821 
C 2874 821 2861 667 2861 609 
C 2861 564 2842 307 2726 307 
C 2554 307 2554 590 2554 956 
C 2554 1393 2554 1432 2490 1592 
C 2406 1778 2253 1907 2176 1964 
z
M 1434 2163 
L 966 2163 
L 966 3532 
L 1434 3532 
C 2022 3532 2304 3155 2304 2847 
C 2304 2540 2022 2163 1434 2163 
z
" transform="scale(0.015625)"/>
       </defs>
       <use xlink:href="#CMTT12-28" transform="scale(0.996264)"/>
       <use xlink:href="#CMTT12-31" transform="translate(51.266111 0) scale(0.996264)"/>
       <use xlink:href="#CMTT12-32" transform="translate(102.532222 0) scale(0.996264)"/>
       <use xlink:href="#CMTT12-39" transform="translate(153.798333 0) scale(0.996264)"/>
       <use xlink:href="#CMTT12-2d" transform="translate(205.064443 0) scale(0.996264)"/>
       <use xlink:href="#CMTT12-41" transform="translate(256.330554 0) scale(0.996264)"/>
       <use xlink:href="#CMTT12-52" transform="translate(307.596665 0) scale(0.996264)"/>
       <use xlink:href="#CMTT12-47" transform="translate(358.862776 0) scale(0.996264)"/>
       <use xlink:href="#CMTT12-29" transform="translate(410.128887 0) scale(0.996264)"/>
       <use xlink:href="#CMTT12-4e" transform="translate(461.394998 0) scale(0.996264)"/>
       <use xlink:href="#CMTT12-45" transform="translate(512.661108 0) scale(0.996264)"/>
       <use xlink:href="#CMTT12-2d" transform="translate(563.927219 0) scale(0.996264)"/>
       <use xlink:href="#CMTT12-2d" transform="translate(615.19333 0) scale(0.996264)"/>
       <use xlink:href="#CMTT12-48" transform="translate(666.459441 0) scale(0.996264)"/>
       <use xlink:href="#CMTT12-45" transform="translate(717.725552 0) scale(0.996264)"/>
       <use xlink:href="#CMTT12-3a" transform="translate(768.991663 0) scale(0.996264)"/>
       <use xlink:href="#CMTT12-3a" transform="translate(820.257774 0) scale(0.996264)"/>
       <use xlink:href="#CMTT12-4f" transform="translate(871.523884 0) scale(0.996264)"/>
       <use xlink:href="#CMTT12-32" transform="translate(922.789995 0) scale(0.996264)"/>
       <use xlink:href="#CMTT12-28" transform="translate(974.056106 0) scale(0.996264)"/>
       <use xlink:href="#CMTT12-56" transform="translate(1025.322217 0) scale(0.996264)"/>
       <use xlink:href="#CMTT12-49" transform="translate(1076.588328 0) scale(0.996264)"/>
       <use xlink:href="#CMTT12-41" transform="translate(1127.854439 0) scale(0.996264)"/>
       <use xlink:href="#CMTT12-29" transform="translate(1179.12055 0) scale(0.996264)"/>
      </g>
     </g>
    </g>
    <g id="xtick_6">
     <g id="line2d_11">
      <g>
       <use xlink:href="#m2a6071e17d" x="578.824883" y="617.005604" style="stroke: #000000; stroke-width: 1.6"/>
      </g>
     </g>
     <g id="line2d_12">
      <g>
       <use xlink:href="#m18770199e8" x="578.824883" y="27.811862" style="stroke: #000000; stroke-width: 1.6"/>
      </g>
     </g>
     <g id="text_6">
      <!-- (129-ARG)NH2- -HH21::O2(VIA) -->
      <g transform="translate(379.940609 824.869045) rotate(-45) scale(0.2 -0.2)">
       <use xlink:href="#CMTT12-28" transform="scale(0.996264)"/>
       <use xlink:href="#CMTT12-31" transform="translate(51.266111 0) scale(0.996264)"/>
       <use xlink:href="#CMTT12-32" transform="translate(102.532222 0) scale(0.996264)"/>
       <use xlink:href="#CMTT12-39" transform="translate(153.798333 0) scale(0.996264)"/>
       <use xlink:href="#CMTT12-2d" transform="translate(205.064443 0) scale(0.996264)"/>
       <use xlink:href="#CMTT12-41" transform="translate(256.330554 0) scale(0.996264)"/>
       <use xlink:href="#CMTT12-52" transform="translate(307.596665 0) scale(0.996264)"/>
       <use xlink:href="#CMTT12-47" transform="translate(358.862776 0) scale(0.996264)"/>
       <use xlink:href="#CMTT12-29" transform="translate(410.128887 0) scale(0.996264)"/>
       <use xlink:href="#CMTT12-4e" transform="translate(461.394998 0) scale(0.996264)"/>
       <use xlink:href="#CMTT12-48" transform="translate(512.661108 0) scale(0.996264)"/>
       <use xlink:href="#CMTT12-32" transform="translate(563.927219 0) scale(0.996264)"/>
       <use xlink:href="#CMTT12-2d" transform="translate(615.19333 0) scale(0.996264)"/>
       <use xlink:href="#CMTT12-2d" transform="translate(666.459441 0) scale(0.996264)"/>
       <use xlink:href="#CMTT12-48" transform="translate(717.725552 0) scale(0.996264)"/>
       <use xlink:href="#CMTT12-48" transform="translate(768.991663 0) scale(0.996264)"/>
       <use xlink:href="#CMTT12-32" transform="translate(820.257774 0) scale(0.996264)"/>
       <use xlink:href="#CMTT12-31" transform="translate(871.523884 0) scale(0.996264)"/>
       <use xlink:href="#CMTT12-3a" transform="translate(922.789995 0) scale(0.996264)"/>
       <use xlink:href="#CMTT12-3a" transform="translate(974.056106 0) scale(0.996264)"/>
       <use xlink:href="#CMTT12-4f" transform="translate(1025.322217 0) scale(0.996264)"/>
       <use xlink:href="#CMTT12-32" transform="translate(1076.588328 0) scale(0.996264)"/>
       <use xlink:href="#CMTT12-28" transform="translate(1127.854439 0) scale(0.996264)"/>
       <use xlink:href="#CMTT12-56" transform="translate(1179.12055 0) scale(0.996264)"/>
       <use xlink:href="#CMTT12-49" transform="translate(1230.38666 0) scale(0.996264)"/>
       <use xlink:href="#CMTT12-41" transform="translate(1281.652771 0) scale(0.996264)"/>
       <use xlink:href="#CMTT12-29" transform="translate(1332.918882 0) scale(0.996264)"/>
      </g>
     </g>
    </g>
    <g id="xtick_7">
     <g id="line2d_13">
      <g>
       <use xlink:href="#m2a6071e17d" x="651.65098" y="617.005604" style="stroke: #000000; stroke-width: 1.6"/>
      </g>
     </g>
     <g id="line2d_14">
      <g>
       <use xlink:href="#m18770199e8" x="651.65098" y="27.811862" style="stroke: #000000; stroke-width: 1.6"/>
      </g>
     </g>
     <g id="text_7">
      <!-- (129-ARG)NH2- -HH22::O2(VIA) -->
      <g transform="translate(452.766706 824.869045) rotate(-45) scale(0.2 -0.2)">
       <use xlink:href="#CMTT12-28" transform="scale(0.996264)"/>
       <use xlink:href="#CMTT12-31" transform="translate(51.266111 0) scale(0.996264)"/>
       <use xlink:href="#CMTT12-32" transform="translate(102.532222 0) scale(0.996264)"/>
       <use xlink:href="#CMTT12-39" transform="translate(153.798333 0) scale(0.996264)"/>
       <use xlink:href="#CMTT12-2d" transform="translate(205.064443 0) scale(0.996264)"/>
       <use xlink:href="#CMTT12-41" transform="translate(256.330554 0) scale(0.996264)"/>
       <use xlink:href="#CMTT12-52" transform="translate(307.596665 0) scale(0.996264)"/>
       <use xlink:href="#CMTT12-47" transform="translate(358.862776 0) scale(0.996264)"/>
       <use xlink:href="#CMTT12-29" transform="translate(410.128887 0) scale(0.996264)"/>
       <use xlink:href="#CMTT12-4e" transform="translate(461.394998 0) scale(0.996264)"/>
       <use xlink:href="#CMTT12-48" transform="translate(512.661108 0) scale(0.996264)"/>
       <use xlink:href="#CMTT12-32" transform="translate(563.927219 0) scale(0.996264)"/>
       <use xlink:href="#CMTT12-2d" transform="translate(615.19333 0) scale(0.996264)"/>
       <use xlink:href="#CMTT12-2d" transform="translate(666.459441 0) scale(0.996264)"/>
       <use xlink:href="#CMTT12-48" transform="translate(717.725552 0) scale(0.996264)"/>
       <use xlink:href="#CMTT12-48" transform="translate(768.991663 0) scale(0.996264)"/>
       <use xlink:href="#CMTT12-32" transform="translate(820.257774 0) scale(0.996264)"/>
       <use xlink:href="#CMTT12-32" transform="translate(871.523884 0) scale(0.996264)"/>
       <use xlink:href="#CMTT12-3a" transform="translate(922.789995 0) scale(0.996264)"/>
       <use xlink:href="#CMTT12-3a" transform="translate(974.056106 0) scale(0.996264)"/>
       <use xlink:href="#CMTT12-4f" transform="translate(1025.322217 0) scale(0.996264)"/>
       <use xlink:href="#CMTT12-32" transform="translate(1076.588328 0) scale(0.996264)"/>
       <use xlink:href="#CMTT12-28" transform="translate(1127.854439 0) scale(0.996264)"/>
       <use xlink:href="#CMTT12-56" transform="translate(1179.12055 0) scale(0.996264)"/>
       <use xlink:href="#CMTT12-49" transform="translate(1230.38666 0) scale(0.996264)"/>
       <use xlink:href="#CMTT12-41" transform="translate(1281.652771 0) scale(0.996264)"/>
       <use xlink:href="#CMTT12-29" transform="translate(1332.918882 0) scale(0.996264)"/>
      </g>
     </g>
    </g>
    <g id="xtick_8">
     <g id="line2d_15">
      <g>
       <use xlink:href="#m2a6071e17d" x="724.477077" y="617.005604" style="stroke: #000000; stroke-width: 1.6"/>
      </g>
     </g>
     <g id="line2d_16">
      <g>
       <use xlink:href="#m18770199e8" x="724.477077" y="27.811862" style="stroke: #000000; stroke-width: 1.6"/>
      </g>
     </g>
     <g id="text_8">
      <!-- (131-ARG)NH2- -HH22::O2(VIA) -->
      <g transform="translate(525.592804 824.869045) rotate(-45) scale(0.2 -0.2)">
       <use xlink:href="#CMTT12-28" transform="scale(0.996264)"/>
       <use xlink:href="#CMTT12-31" transform="translate(51.266111 0) scale(0.996264)"/>
       <use xlink:href="#CMTT12-33" transform="translate(102.532222 0) scale(0.996264)"/>
       <use xlink:href="#CMTT12-31" transform="translate(153.798333 0) scale(0.996264)"/>
       <use xlink:href="#CMTT12-2d" transform="translate(205.064443 0) scale(0.996264)"/>
       <use xlink:href="#CMTT12-41" transform="translate(256.330554 0) scale(0.996264)"/>
       <use xlink:href="#CMTT12-52" transform="translate(307.596665 0) scale(0.996264)"/>
       <use xlink:href="#CMTT12-47" transform="translate(358.862776 0) scale(0.996264)"/>
       <use xlink:href="#CMTT12-29" transform="translate(410.128887 0) scale(0.996264)"/>
       <use xlink:href="#CMTT12-4e" transform="translate(461.394998 0) scale(0.996264)"/>
       <use xlink:href="#CMTT12-48" transform="translate(512.661108 0) scale(0.996264)"/>
       <use xlink:href="#CMTT12-32" transform="translate(563.927219 0) scale(0.996264)"/>
       <use xlink:href="#CMTT12-2d" transform="translate(615.19333 0) scale(0.996264)"/>
       <use xlink:href="#CMTT12-2d" transform="translate(666.459441 0) scale(0.996264)"/>
       <use xlink:href="#CMTT12-48" transform="translate(717.725552 0) scale(0.996264)"/>
       <use xlink:href="#CMTT12-48" transform="translate(768.991663 0) scale(0.996264)"/>
       <use xlink:href="#CMTT12-32" transform="translate(820.257774 0) scale(0.996264)"/>
       <use xlink:href="#CMTT12-32" transform="translate(871.523884 0) scale(0.996264)"/>
       <use xlink:href="#CMTT12-3a" transform="translate(922.789995 0) scale(0.996264)"/>
       <use xlink:href="#CMTT12-3a" transform="translate(974.056106 0) scale(0.996264)"/>
       <use xlink:href="#CMTT12-4f" transform="translate(1025.322217 0) scale(0.996264)"/>
       <use xlink:href="#CMTT12-32" transform="translate(1076.588328 0) scale(0.996264)"/>
       <use xlink:href="#CMTT12-28" transform="translate(1127.854439 0) scale(0.996264)"/>
       <use xlink:href="#CMTT12-56" transform="translate(1179.12055 0) scale(0.996264)"/>
       <use xlink:href="#CMTT12-49" transform="translate(1230.38666 0) scale(0.996264)"/>
       <use xlink:href="#CMTT12-41" transform="translate(1281.652771 0) scale(0.996264)"/>
       <use xlink:href="#CMTT12-29" transform="translate(1332.918882 0) scale(0.996264)"/>
      </g>
     </g>
    </g>
    <g id="xtick_9">
     <g id="line2d_17">
      <g>
       <use xlink:href="#m2a6071e17d" x="797.303175" y="617.005604" style="stroke: #000000; stroke-width: 1.6"/>
      </g>
     </g>
     <g id="line2d_18">
      <g>
       <use xlink:href="#m18770199e8" x="797.303175" y="27.811862" style="stroke: #000000; stroke-width: 1.6"/>
      </g>
     </g>
     <g id="text_9">
      <!-- (131-ARG)NH1- -HH12::O2(VIA) -->
      <g transform="translate(598.418901 824.869045) rotate(-45) scale(0.2 -0.2)">
       <use xlink:href="#CMTT12-28" transform="scale(0.996264)"/>
       <use xlink:href="#CMTT12-31" transform="translate(51.266111 0) scale(0.996264)"/>
       <use xlink:href="#CMTT12-33" transform="translate(102.532222 0) scale(0.996264)"/>
       <use xlink:href="#CMTT12-31" transform="translate(153.798333 0) scale(0.996264)"/>
       <use xlink:href="#CMTT12-2d" transform="translate(205.064443 0) scale(0.996264)"/>
       <use xlink:href="#CMTT12-41" transform="translate(256.330554 0) scale(0.996264)"/>
       <use xlink:href="#CMTT12-52" transform="translate(307.596665 0) scale(0.996264)"/>
       <use xlink:href="#CMTT12-47" transform="translate(358.862776 0) scale(0.996264)"/>
       <use xlink:href="#CMTT12-29" transform="translate(410.128887 0) scale(0.996264)"/>
       <use xlink:href="#CMTT12-4e" transform="translate(461.394998 0) scale(0.996264)"/>
       <use xlink:href="#CMTT12-48" transform="translate(512.661108 0) scale(0.996264)"/>
       <use xlink:href="#CMTT12-31" transform="translate(563.927219 0) scale(0.996264)"/>
       <use xlink:href="#CMTT12-2d" transform="translate(615.19333 0) scale(0.996264)"/>
       <use xlink:href="#CMTT12-2d" transform="translate(666.459441 0) scale(0.996264)"/>
       <use xlink:href="#CMTT12-48" transform="translate(717.725552 0) scale(0.996264)"/>
       <use xlink:href="#CMTT12-48" transform="translate(768.991663 0) scale(0.996264)"/>
       <use xlink:href="#CMTT12-31" transform="translate(820.257774 0) scale(0.996264)"/>
       <use xlink:href="#CMTT12-32" transform="translate(871.523884 0) scale(0.996264)"/>
       <use xlink:href="#CMTT12-3a" transform="translate(922.789995 0) scale(0.996264)"/>
       <use xlink:href="#CMTT12-3a" transform="translate(974.056106 0) scale(0.996264)"/>
       <use xlink:href="#CMTT12-4f" transform="translate(1025.322217 0) scale(0.996264)"/>
       <use xlink:href="#CMTT12-32" transform="translate(1076.588328 0) scale(0.996264)"/>
       <use xlink:href="#CMTT12-28" transform="translate(1127.854439 0) scale(0.996264)"/>
       <use xlink:href="#CMTT12-56" transform="translate(1179.12055 0) scale(0.996264)"/>
       <use xlink:href="#CMTT12-49" transform="translate(1230.38666 0) scale(0.996264)"/>
       <use xlink:href="#CMTT12-41" transform="translate(1281.652771 0) scale(0.996264)"/>
       <use xlink:href="#CMTT12-29" transform="translate(1332.918882 0) scale(0.996264)"/>
      </g>
     </g>
    </g>
    <g id="xtick_10">
     <g id="line2d_19">
      <g>
       <use xlink:href="#m2a6071e17d" x="870.129272" y="617.005604" style="stroke: #000000; stroke-width: 1.6"/>
      </g>
     </g>
     <g id="line2d_20">
      <g>
       <use xlink:href="#m18770199e8" x="870.129272" y="27.811862" style="stroke: #000000; stroke-width: 1.6"/>
      </g>
     </g>
     <g id="text_10">
      <!-- (131-ARG)NH1- -HH11::O2(VIA) -->
      <g transform="translate(671.244998 824.869045) rotate(-45) scale(0.2 -0.2)">
       <use xlink:href="#CMTT12-28" transform="scale(0.996264)"/>
       <use xlink:href="#CMTT12-31" transform="translate(51.266111 0) scale(0.996264)"/>
       <use xlink:href="#CMTT12-33" transform="translate(102.532222 0) scale(0.996264)"/>
       <use xlink:href="#CMTT12-31" transform="translate(153.798333 0) scale(0.996264)"/>
       <use xlink:href="#CMTT12-2d" transform="translate(205.064443 0) scale(0.996264)"/>
       <use xlink:href="#CMTT12-41" transform="translate(256.330554 0) scale(0.996264)"/>
       <use xlink:href="#CMTT12-52" transform="translate(307.596665 0) scale(0.996264)"/>
       <use xlink:href="#CMTT12-47" transform="translate(358.862776 0) scale(0.996264)"/>
       <use xlink:href="#CMTT12-29" transform="translate(410.128887 0) scale(0.996264)"/>
       <use xlink:href="#CMTT12-4e" transform="translate(461.394998 0) scale(0.996264)"/>
       <use xlink:href="#CMTT12-48" transform="translate(512.661108 0) scale(0.996264)"/>
       <use xlink:href="#CMTT12-31" transform="translate(563.927219 0) scale(0.996264)"/>
       <use xlink:href="#CMTT12-2d" transform="translate(615.19333 0) scale(0.996264)"/>
       <use xlink:href="#CMTT12-2d" transform="translate(666.459441 0) scale(0.996264)"/>
       <use xlink:href="#CMTT12-48" transform="translate(717.725552 0) scale(0.996264)"/>
       <use xlink:href="#CMTT12-48" transform="translate(768.991663 0) scale(0.996264)"/>
       <use xlink:href="#CMTT12-31" transform="translate(820.257774 0) scale(0.996264)"/>
       <use xlink:href="#CMTT12-31" transform="translate(871.523884 0) scale(0.996264)"/>
       <use xlink:href="#CMTT12-3a" transform="translate(922.789995 0) scale(0.996264)"/>
       <use xlink:href="#CMTT12-3a" transform="translate(974.056106 0) scale(0.996264)"/>
       <use xlink:href="#CMTT12-4f" transform="translate(1025.322217 0) scale(0.996264)"/>
       <use xlink:href="#CMTT12-32" transform="translate(1076.588328 0) scale(0.996264)"/>
       <use xlink:href="#CMTT12-28" transform="translate(1127.854439 0) scale(0.996264)"/>
       <use xlink:href="#CMTT12-56" transform="translate(1179.12055 0) scale(0.996264)"/>
       <use xlink:href="#CMTT12-49" transform="translate(1230.38666 0) scale(0.996264)"/>
       <use xlink:href="#CMTT12-41" transform="translate(1281.652771 0) scale(0.996264)"/>
       <use xlink:href="#CMTT12-29" transform="translate(1332.918882 0) scale(0.996264)"/>
      </g>
     </g>
    </g>
    <g id="xtick_11">
     <g id="line2d_21">
      <g>
       <use xlink:href="#m2a6071e17d" x="942.955369" y="617.005604" style="stroke: #000000; stroke-width: 1.6"/>
      </g>
     </g>
     <g id="line2d_22">
      <g>
       <use xlink:href="#m18770199e8" x="942.955369" y="27.811862" style="stroke: #000000; stroke-width: 1.6"/>
      </g>
     </g>
     <g id="text_11">
      <!-- (131-ARG)NH2- -HH21::O2(VIA) -->
      <g transform="translate(744.071096 824.869045) rotate(-45) scale(0.2 -0.2)">
       <use xlink:href="#CMTT12-28" transform="scale(0.996264)"/>
       <use xlink:href="#CMTT12-31" transform="translate(51.266111 0) scale(0.996264)"/>
       <use xlink:href="#CMTT12-33" transform="translate(102.532222 0) scale(0.996264)"/>
       <use xlink:href="#CMTT12-31" transform="translate(153.798333 0) scale(0.996264)"/>
       <use xlink:href="#CMTT12-2d" transform="translate(205.064443 0) scale(0.996264)"/>
       <use xlink:href="#CMTT12-41" transform="translate(256.330554 0) scale(0.996264)"/>
       <use xlink:href="#CMTT12-52" transform="translate(307.596665 0) scale(0.996264)"/>
       <use xlink:href="#CMTT12-47" transform="translate(358.862776 0) scale(0.996264)"/>
       <use xlink:href="#CMTT12-29" transform="translate(410.128887 0) scale(0.996264)"/>
       <use xlink:href="#CMTT12-4e" transform="translate(461.394998 0) scale(0.996264)"/>
       <use xlink:href="#CMTT12-48" transform="translate(512.661108 0) scale(0.996264)"/>
       <use xlink:href="#CMTT12-32" transform="translate(563.927219 0) scale(0.996264)"/>
       <use xlink:href="#CMTT12-2d" transform="translate(615.19333 0) scale(0.996264)"/>
       <use xlink:href="#CMTT12-2d" transform="translate(666.459441 0) scale(0.996264)"/>
       <use xlink:href="#CMTT12-48" transform="translate(717.725552 0) scale(0.996264)"/>
       <use xlink:href="#CMTT12-48" transform="translate(768.991663 0) scale(0.996264)"/>
       <use xlink:href="#CMTT12-32" transform="translate(820.257774 0) scale(0.996264)"/>
       <use xlink:href="#CMTT12-31" transform="translate(871.523884 0) scale(0.996264)"/>
       <use xlink:href="#CMTT12-3a" transform="translate(922.789995 0) scale(0.996264)"/>
       <use xlink:href="#CMTT12-3a" transform="translate(974.056106 0) scale(0.996264)"/>
       <use xlink:href="#CMTT12-4f" transform="translate(1025.322217 0) scale(0.996264)"/>
       <use xlink:href="#CMTT12-32" transform="translate(1076.588328 0) scale(0.996264)"/>
       <use xlink:href="#CMTT12-28" transform="translate(1127.854439 0) scale(0.996264)"/>
       <use xlink:href="#CMTT12-56" transform="translate(1179.12055 0) scale(0.996264)"/>
       <use xlink:href="#CMTT12-49" transform="translate(1230.38666 0) scale(0.996264)"/>
       <use xlink:href="#CMTT12-41" transform="translate(1281.652771 0) scale(0.996264)"/>
       <use xlink:href="#CMTT12-29" transform="translate(1332.918882 0) scale(0.996264)"/>
      </g>
     </g>
    </g>
    <g id="xtick_12">
     <g id="line2d_23">
      <g>
       <use xlink:href="#m2a6071e17d" x="1015.781467" y="617.005604" style="stroke: #000000; stroke-width: 1.6"/>
      </g>
     </g>
     <g id="line2d_24">
      <g>
       <use xlink:href="#m18770199e8" x="1015.781467" y="27.811862" style="stroke: #000000; stroke-width: 1.6"/>
      </g>
     </g>
     <g id="text_12">
      <!-- (131-ARG)NH1- -HH12::O3(VIA) -->
      <g transform="translate(816.897193 824.869045) rotate(-45) scale(0.2 -0.2)">
       <use xlink:href="#CMTT12-28" transform="scale(0.996264)"/>
       <use xlink:href="#CMTT12-31" transform="translate(51.266111 0) scale(0.996264)"/>
       <use xlink:href="#CMTT12-33" transform="translate(102.532222 0) scale(0.996264)"/>
       <use xlink:href="#CMTT12-31" transform="translate(153.798333 0) scale(0.996264)"/>
       <use xlink:href="#CMTT12-2d" transform="translate(205.064443 0) scale(0.996264)"/>
       <use xlink:href="#CMTT12-41" transform="translate(256.330554 0) scale(0.996264)"/>
       <use xlink:href="#CMTT12-52" transform="translate(307.596665 0) scale(0.996264)"/>
       <use xlink:href="#CMTT12-47" transform="translate(358.862776 0) scale(0.996264)"/>
       <use xlink:href="#CMTT12-29" transform="translate(410.128887 0) scale(0.996264)"/>
       <use xlink:href="#CMTT12-4e" transform="translate(461.394998 0) scale(0.996264)"/>
       <use xlink:href="#CMTT12-48" transform="translate(512.661108 0) scale(0.996264)"/>
       <use xlink:href="#CMTT12-31" transform="translate(563.927219 0) scale(0.996264)"/>
       <use xlink:href="#CMTT12-2d" transform="translate(615.19333 0) scale(0.996264)"/>
       <use xlink:href="#CMTT12-2d" transform="translate(666.459441 0) scale(0.996264)"/>
       <use xlink:href="#CMTT12-48" transform="translate(717.725552 0) scale(0.996264)"/>
       <use xlink:href="#CMTT12-48" transform="translate(768.991663 0) scale(0.996264)"/>
       <use xlink:href="#CMTT12-31" transform="translate(820.257774 0) scale(0.996264)"/>
       <use xlink:href="#CMTT12-32" transform="translate(871.523884 0) scale(0.996264)"/>
       <use xlink:href="#CMTT12-3a" transform="translate(922.789995 0) scale(0.996264)"/>
       <use xlink:href="#CMTT12-3a" transform="translate(974.056106 0) scale(0.996264)"/>
       <use xlink:href="#CMTT12-4f" transform="translate(1025.322217 0) scale(0.996264)"/>
       <use xlink:href="#CMTT12-33" transform="translate(1076.588328 0) scale(0.996264)"/>
       <use xlink:href="#CMTT12-28" transform="translate(1127.854439 0) scale(0.996264)"/>
       <use xlink:href="#CMTT12-56" transform="translate(1179.12055 0) scale(0.996264)"/>
       <use xlink:href="#CMTT12-49" transform="translate(1230.38666 0) scale(0.996264)"/>
       <use xlink:href="#CMTT12-41" transform="translate(1281.652771 0) scale(0.996264)"/>
       <use xlink:href="#CMTT12-29" transform="translate(1332.918882 0) scale(0.996264)"/>
      </g>
     </g>
    </g>
    <g id="xtick_13">
     <g id="line2d_25">
      <g>
       <use xlink:href="#m2a6071e17d" x="1088.607564" y="617.005604" style="stroke: #000000; stroke-width: 1.6"/>
      </g>
     </g>
     <g id="line2d_26">
      <g>
       <use xlink:href="#m18770199e8" x="1088.607564" y="27.811862" style="stroke: #000000; stroke-width: 1.6"/>
      </g>
     </g>
     <g id="text_13">
      <!-- (131-ARG)NH1- -HH11::O3(VIA) -->
      <g transform="translate(889.723291 824.869045) rotate(-45) scale(0.2 -0.2)">
       <use xlink:href="#CMTT12-28" transform="scale(0.996264)"/>
       <use xlink:href="#CMTT12-31" transform="translate(51.266111 0) scale(0.996264)"/>
       <use xlink:href="#CMTT12-33" transform="translate(102.532222 0) scale(0.996264)"/>
       <use xlink:href="#CMTT12-31" transform="translate(153.798333 0) scale(0.996264)"/>
       <use xlink:href="#CMTT12-2d" transform="translate(205.064443 0) scale(0.996264)"/>
       <use xlink:href="#CMTT12-41" transform="translate(256.330554 0) scale(0.996264)"/>
       <use xlink:href="#CMTT12-52" transform="translate(307.596665 0) scale(0.996264)"/>
       <use xlink:href="#CMTT12-47" transform="translate(358.862776 0) scale(0.996264)"/>
       <use xlink:href="#CMTT12-29" transform="translate(410.128887 0) scale(0.996264)"/>
       <use xlink:href="#CMTT12-4e" transform="translate(461.394998 0) scale(0.996264)"/>
       <use xlink:href="#CMTT12-48" transform="translate(512.661108 0) scale(0.996264)"/>
       <use xlink:href="#CMTT12-31" transform="translate(563.927219 0) scale(0.996264)"/>
       <use xlink:href="#CMTT12-2d" transform="translate(615.19333 0) scale(0.996264)"/>
       <use xlink:href="#CMTT12-2d" transform="translate(666.459441 0) scale(0.996264)"/>
       <use xlink:href="#CMTT12-48" transform="translate(717.725552 0) scale(0.996264)"/>
       <use xlink:href="#CMTT12-48" transform="translate(768.991663 0) scale(0.996264)"/>
       <use xlink:href="#CMTT12-31" transform="translate(820.257774 0) scale(0.996264)"/>
       <use xlink:href="#CMTT12-31" transform="translate(871.523884 0) scale(0.996264)"/>
       <use xlink:href="#CMTT12-3a" transform="translate(922.789995 0) scale(0.996264)"/>
       <use xlink:href="#CMTT12-3a" transform="translate(974.056106 0) scale(0.996264)"/>
       <use xlink:href="#CMTT12-4f" transform="translate(1025.322217 0) scale(0.996264)"/>
       <use xlink:href="#CMTT12-33" transform="translate(1076.588328 0) scale(0.996264)"/>
       <use xlink:href="#CMTT12-28" transform="translate(1127.854439 0) scale(0.996264)"/>
       <use xlink:href="#CMTT12-56" transform="translate(1179.12055 0) scale(0.996264)"/>
       <use xlink:href="#CMTT12-49" transform="translate(1230.38666 0) scale(0.996264)"/>
       <use xlink:href="#CMTT12-41" transform="translate(1281.652771 0) scale(0.996264)"/>
       <use xlink:href="#CMTT12-29" transform="translate(1332.918882 0) scale(0.996264)"/>
      </g>
     </g>
    </g>
    <g id="xtick_14">
     <g id="line2d_27">
      <g>
       <use xlink:href="#m2a6071e17d" x="1161.433661" y="617.005604" style="stroke: #000000; stroke-width: 1.6"/>
      </g>
     </g>
     <g id="line2d_28">
      <g>
       <use xlink:href="#m18770199e8" x="1161.433661" y="27.811862" style="stroke: #000000; stroke-width: 1.6"/>
      </g>
     </g>
     <g id="text_14">
      <!-- (131-ARG)NH2- -HH22::O3(VIA) -->
      <g transform="translate(962.549388 824.869045) rotate(-45) scale(0.2 -0.2)">
       <use xlink:href="#CMTT12-28" transform="scale(0.996264)"/>
       <use xlink:href="#CMTT12-31" transform="translate(51.266111 0) scale(0.996264)"/>
       <use xlink:href="#CMTT12-33" transform="translate(102.532222 0) scale(0.996264)"/>
       <use xlink:href="#CMTT12-31" transform="translate(153.798333 0) scale(0.996264)"/>
       <use xlink:href="#CMTT12-2d" transform="translate(205.064443 0) scale(0.996264)"/>
       <use xlink:href="#CMTT12-41" transform="translate(256.330554 0) scale(0.996264)"/>
       <use xlink:href="#CMTT12-52" transform="translate(307.596665 0) scale(0.996264)"/>
       <use xlink:href="#CMTT12-47" transform="translate(358.862776 0) scale(0.996264)"/>
       <use xlink:href="#CMTT12-29" transform="translate(410.128887 0) scale(0.996264)"/>
       <use xlink:href="#CMTT12-4e" transform="translate(461.394998 0) scale(0.996264)"/>
       <use xlink:href="#CMTT12-48" transform="translate(512.661108 0) scale(0.996264)"/>
       <use xlink:href="#CMTT12-32" transform="translate(563.927219 0) scale(0.996264)"/>
       <use xlink:href="#CMTT12-2d" transform="translate(615.19333 0) scale(0.996264)"/>
       <use xlink:href="#CMTT12-2d" transform="translate(666.459441 0) scale(0.996264)"/>
       <use xlink:href="#CMTT12-48" transform="translate(717.725552 0) scale(0.996264)"/>
       <use xlink:href="#CMTT12-48" transform="translate(768.991663 0) scale(0.996264)"/>
       <use xlink:href="#CMTT12-32" transform="translate(820.257774 0) scale(0.996264)"/>
       <use xlink:href="#CMTT12-32" transform="translate(871.523884 0) scale(0.996264)"/>
       <use xlink:href="#CMTT12-3a" transform="translate(922.789995 0) scale(0.996264)"/>
       <use xlink:href="#CMTT12-3a" transform="translate(974.056106 0) scale(0.996264)"/>
       <use xlink:href="#CMTT12-4f" transform="translate(1025.322217 0) scale(0.996264)"/>
       <use xlink:href="#CMTT12-33" transform="translate(1076.588328 0) scale(0.996264)"/>
       <use xlink:href="#CMTT12-28" transform="translate(1127.854439 0) scale(0.996264)"/>
       <use xlink:href="#CMTT12-56" transform="translate(1179.12055 0) scale(0.996264)"/>
       <use xlink:href="#CMTT12-49" transform="translate(1230.38666 0) scale(0.996264)"/>
       <use xlink:href="#CMTT12-41" transform="translate(1281.652771 0) scale(0.996264)"/>
       <use xlink:href="#CMTT12-29" transform="translate(1332.918882 0) scale(0.996264)"/>
      </g>
     </g>
    </g>
    <g id="xtick_15">
     <g id="line2d_29">
      <g>
       <use xlink:href="#m2a6071e17d" x="1234.259759" y="617.005604" style="stroke: #000000; stroke-width: 1.6"/>
      </g>
     </g>
     <g id="line2d_30">
      <g>
       <use xlink:href="#m18770199e8" x="1234.259759" y="27.811862" style="stroke: #000000; stroke-width: 1.6"/>
      </g>
     </g>
     <g id="text_15">
      <!-- (131-ARG)NH2- -HH21::O3(VIA) -->
      <g transform="translate(1035.375485 824.869045) rotate(-45) scale(0.2 -0.2)">
       <use xlink:href="#CMTT12-28" transform="scale(0.996264)"/>
       <use xlink:href="#CMTT12-31" transform="translate(51.266111 0) scale(0.996264)"/>
       <use xlink:href="#CMTT12-33" transform="translate(102.532222 0) scale(0.996264)"/>
       <use xlink:href="#CMTT12-31" transform="translate(153.798333 0) scale(0.996264)"/>
       <use xlink:href="#CMTT12-2d" transform="translate(205.064443 0) scale(0.996264)"/>
       <use xlink:href="#CMTT12-41" transform="translate(256.330554 0) scale(0.996264)"/>
       <use xlink:href="#CMTT12-52" transform="translate(307.596665 0) scale(0.996264)"/>
       <use xlink:href="#CMTT12-47" transform="translate(358.862776 0) scale(0.996264)"/>
       <use xlink:href="#CMTT12-29" transform="translate(410.128887 0) scale(0.996264)"/>
       <use xlink:href="#CMTT12-4e" transform="translate(461.394998 0) scale(0.996264)"/>
       <use xlink:href="#CMTT12-48" transform="translate(512.661108 0) scale(0.996264)"/>
       <use xlink:href="#CMTT12-32" transform="translate(563.927219 0) scale(0.996264)"/>
       <use xlink:href="#CMTT12-2d" transform="translate(615.19333 0) scale(0.996264)"/>
       <use xlink:href="#CMTT12-2d" transform="translate(666.459441 0) scale(0.996264)"/>
       <use xlink:href="#CMTT12-48" transform="translate(717.725552 0) scale(0.996264)"/>
       <use xlink:href="#CMTT12-48" transform="translate(768.991663 0) scale(0.996264)"/>
       <use xlink:href="#CMTT12-32" transform="translate(820.257774 0) scale(0.996264)"/>
       <use xlink:href="#CMTT12-31" transform="translate(871.523884 0) scale(0.996264)"/>
       <use xlink:href="#CMTT12-3a" transform="translate(922.789995 0) scale(0.996264)"/>
       <use xlink:href="#CMTT12-3a" transform="translate(974.056106 0) scale(0.996264)"/>
       <use xlink:href="#CMTT12-4f" transform="translate(1025.322217 0) scale(0.996264)"/>
       <use xlink:href="#CMTT12-33" transform="translate(1076.588328 0) scale(0.996264)"/>
       <use xlink:href="#CMTT12-28" transform="translate(1127.854439 0) scale(0.996264)"/>
       <use xlink:href="#CMTT12-56" transform="translate(1179.12055 0) scale(0.996264)"/>
       <use xlink:href="#CMTT12-49" transform="translate(1230.38666 0) scale(0.996264)"/>
       <use xlink:href="#CMTT12-41" transform="translate(1281.652771 0) scale(0.996264)"/>
       <use xlink:href="#CMTT12-29" transform="translate(1332.918882 0) scale(0.996264)"/>
      </g>
     </g>
    </g>
    <g id="xtick_16">
     <g id="line2d_31">
      <g>
       <use xlink:href="#m2a6071e17d" x="1307.085856" y="617.005604" style="stroke: #000000; stroke-width: 1.6"/>
      </g>
     </g>
     <g id="line2d_32">
      <g>
       <use xlink:href="#m18770199e8" x="1307.085856" y="27.811862" style="stroke: #000000; stroke-width: 1.6"/>
      </g>
     </g>
     <g id="text_16">
      <!-- (131-ARG)NE- -HE::O2(VIA) -->
      <g transform="translate(1129.951951 803.118677) rotate(-45) scale(0.2 -0.2)">
       <use xlink:href="#CMTT12-28" transform="scale(0.996264)"/>
       <use xlink:href="#CMTT12-31" transform="translate(51.266111 0) scale(0.996264)"/>
       <use xlink:href="#CMTT12-33" transform="translate(102.532222 0) scale(0.996264)"/>
       <use xlink:href="#CMTT12-31" transform="translate(153.798333 0) scale(0.996264)"/>
       <use xlink:href="#CMTT12-2d" transform="translate(205.064443 0) scale(0.996264)"/>
       <use xlink:href="#CMTT12-41" transform="translate(256.330554 0) scale(0.996264)"/>
       <use xlink:href="#CMTT12-52" transform="translate(307.596665 0) scale(0.996264)"/>
       <use xlink:href="#CMTT12-47" transform="translate(358.862776 0) scale(0.996264)"/>
       <use xlink:href="#CMTT12-29" transform="translate(410.128887 0) scale(0.996264)"/>
       <use xlink:href="#CMTT12-4e" transform="translate(461.394998 0) scale(0.996264)"/>
       <use xlink:href="#CMTT12-45" transform="translate(512.661108 0) scale(0.996264)"/>
       <use xlink:href="#CMTT12-2d" transform="translate(563.927219 0) scale(0.996264)"/>
       <use xlink:href="#CMTT12-2d" transform="translate(615.19333 0) scale(0.996264)"/>
       <use xlink:href="#CMTT12-48" transform="translate(666.459441 0) scale(0.996264)"/>
       <use xlink:href="#CMTT12-45" transform="translate(717.725552 0) scale(0.996264)"/>
       <use xlink:href="#CMTT12-3a" transform="translate(768.991663 0) scale(0.996264)"/>
       <use xlink:href="#CMTT12-3a" transform="translate(820.257774 0) scale(0.996264)"/>
       <use xlink:href="#CMTT12-4f" transform="translate(871.523884 0) scale(0.996264)"/>
       <use xlink:href="#CMTT12-32" transform="translate(922.789995 0) scale(0.996264)"/>
       <use xlink:href="#CMTT12-28" transform="translate(974.056106 0) scale(0.996264)"/>
       <use xlink:href="#CMTT12-56" transform="translate(1025.322217 0) scale(0.996264)"/>
       <use xlink:href="#CMTT12-49" transform="translate(1076.588328 0) scale(0.996264)"/>
       <use xlink:href="#CMTT12-41" transform="translate(1127.854439 0) scale(0.996264)"/>
       <use xlink:href="#CMTT12-29" transform="translate(1179.12055 0) scale(0.996264)"/>
      </g>
     </g>
    </g>
   </g>
   <g id="matplotlib.axis_2">
    <g id="ytick_1">
     <g id="line2d_33">
      <defs>
       <path id="mefd7d147e5" d="M 0 0 
L 3.5 0 
" style="stroke: #000000; stroke-width: 1.6"/>
      </defs>
      <g>
       <use xlink:href="#mefd7d147e5" x="128.03134" y="617.005604" style="stroke: #000000; stroke-width: 1.6"/>
      </g>
     </g>
     <g id="text_17">
      <!-- $\mathdefault{0.00}$ -->
      <g transform="translate(91.697618 623.09388) scale(0.2 -0.2)">
       <defs>
        <path id="CMR17-30" d="M 2688 2038 
C 2688 2430 2682 3099 2413 3613 
C 2176 4063 1798 4224 1466 4224 
C 1158 4224 768 4082 525 3620 
C 269 3137 243 2539 243 2038 
C 243 1671 250 1112 448 623 
C 723 -39 1216 -128 1466 -128 
C 1760 -128 2208 -7 2470 604 
C 2662 1048 2688 1568 2688 2038 
z
M 1466 -26 
C 1056 -26 813 328 723 816 
C 653 1196 653 1749 653 2109 
C 653 2604 653 3015 736 3407 
C 858 3954 1216 4121 1466 4121 
C 1728 4121 2067 3947 2189 3420 
C 2272 3054 2278 2623 2278 2109 
C 2278 1691 2278 1176 2202 797 
C 2067 96 1690 -26 1466 -26 
z
" transform="scale(0.015625)"/>
        <path id="CMMI12-3a" d="M 1178 307 
C 1178 492 1024 620 870 620 
C 685 620 557 467 557 313 
C 557 128 710 0 864 0 
C 1050 0 1178 153 1178 307 
z
" transform="scale(0.015625)"/>
       </defs>
       <use xlink:href="#CMR17-30" transform="scale(0.996264)"/>
       <use xlink:href="#CMMI12-3a" transform="translate(45.690477 0) scale(0.996264)"/>
       <use xlink:href="#CMR17-30" transform="translate(72.787654 0) scale(0.996264)"/>
       <use xlink:href="#CMR17-30" transform="translate(118.478131 0) scale(0.996264)"/>
      </g>
     </g>
    </g>
    <g id="ytick_2">
     <g id="line2d_34">
      <g>
       <use xlink:href="#mefd7d147e5" x="128.03134" y="509.712582" style="stroke: #000000; stroke-width: 1.6"/>
      </g>
     </g>
     <g id="text_18">
      <!-- $\mathdefault{0.02}$ -->
      <g transform="translate(91.697618 515.800857) scale(0.2 -0.2)">
       <defs>
        <path id="CMR17-32" d="M 2669 990 
L 2554 990 
C 2490 537 2438 460 2413 422 
C 2381 371 1920 371 1830 371 
L 602 371 
C 832 620 1280 1073 1824 1596 
C 2214 1966 2669 2400 2669 3033 
C 2669 3788 2067 4224 1395 4224 
C 691 4224 262 3603 262 3027 
C 262 2777 448 2745 525 2745 
C 589 2745 781 2783 781 3007 
C 781 3206 614 3264 525 3264 
C 486 3264 448 3257 422 3244 
C 544 3788 915 4057 1306 4057 
C 1862 4057 2227 3616 2227 3033 
C 2227 2477 1901 1998 1536 1583 
L 262 147 
L 262 0 
L 2515 0 
L 2669 990 
z
" transform="scale(0.015625)"/>
       </defs>
       <use xlink:href="#CMR17-30" transform="scale(0.996264)"/>
       <use xlink:href="#CMMI12-3a" transform="translate(45.690477 0) scale(0.996264)"/>
       <use xlink:href="#CMR17-30" transform="translate(72.787654 0) scale(0.996264)"/>
       <use xlink:href="#CMR17-32" transform="translate(118.478131 0) scale(0.996264)"/>
      </g>
     </g>
    </g>
    <g id="ytick_3">
     <g id="line2d_35">
      <g>
       <use xlink:href="#mefd7d147e5" x="128.03134" y="402.419559" style="stroke: #000000; stroke-width: 1.6"/>
      </g>
     </g>
     <g id="text_19">
      <!-- $\mathdefault{0.04}$ -->
      <g transform="translate(91.697618 408.507835) scale(0.2 -0.2)">
       <defs>
        <path id="CMR17-34" d="M 2150 4147 
C 2150 4281 2144 4288 2029 4288 
L 128 1254 
L 128 1088 
L 1779 1088 
L 1779 460 
C 1779 230 1766 166 1318 166 
L 1197 166 
L 1197 0 
C 1402 12 1747 12 1965 12 
C 2182 12 2528 12 2733 0 
L 2733 166 
L 2611 166 
C 2163 166 2150 230 2150 460 
L 2150 1088 
L 2803 1088 
L 2803 1254 
L 2150 1254 
L 2150 4147 
z
M 1798 3723 
L 1798 1254 
L 256 1254 
L 1798 3723 
z
" transform="scale(0.015625)"/>
       </defs>
       <use xlink:href="#CMR17-30" transform="scale(0.996264)"/>
       <use xlink:href="#CMMI12-3a" transform="translate(45.690477 0) scale(0.996264)"/>
       <use xlink:href="#CMR17-30" transform="translate(72.787654 0) scale(0.996264)"/>
       <use xlink:href="#CMR17-34" transform="translate(118.478131 0) scale(0.996264)"/>
      </g>
     </g>
    </g>
    <g id="ytick_4">
     <g id="line2d_36">
      <g>
       <use xlink:href="#mefd7d147e5" x="128.03134" y="295.126536" style="stroke: #000000; stroke-width: 1.6"/>
      </g>
     </g>
     <g id="text_20">
      <!-- $\mathdefault{0.06}$ -->
      <g transform="translate(91.697618 301.214812) scale(0.2 -0.2)">
       <defs>
        <path id="CMR17-36" d="M 678 2198 
C 678 3712 1395 4076 1811 4076 
C 1946 4076 2272 4049 2400 3782 
C 2298 3782 2106 3782 2106 3558 
C 2106 3385 2246 3328 2336 3328 
C 2394 3328 2566 3353 2566 3571 
C 2566 3987 2246 4224 1805 4224 
C 1043 4224 243 3411 243 2011 
C 243 257 966 -128 1478 -128 
C 2099 -128 2688 431 2688 1295 
C 2688 2101 2170 2688 1517 2688 
C 1126 2688 838 2430 678 1979 
L 678 2198 
z
M 1478 25 
C 691 25 691 1212 691 1450 
C 691 1914 909 2585 1504 2585 
C 1613 2585 1926 2585 2138 2140 
C 2253 1889 2253 1624 2253 1302 
C 2253 954 2253 696 2118 438 
C 1978 173 1773 25 1478 25 
z
" transform="scale(0.015625)"/>
       </defs>
       <use xlink:href="#CMR17-30" transform="scale(0.996264)"/>
       <use xlink:href="#CMMI12-3a" transform="translate(45.690477 0) scale(0.996264)"/>
       <use xlink:href="#CMR17-30" transform="translate(72.787654 0) scale(0.996264)"/>
       <use xlink:href="#CMR17-36" transform="translate(118.478131 0) scale(0.996264)"/>
      </g>
     </g>
    </g>
    <g id="ytick_5">
     <g id="line2d_37">
      <g>
       <use xlink:href="#mefd7d147e5" x="128.03134" y="187.833513" style="stroke: #000000; stroke-width: 1.6"/>
      </g>
     </g>
     <g id="text_21">
      <!-- $\mathdefault{0.08}$ -->
      <g transform="translate(91.697618 193.921789) scale(0.2 -0.2)">
       <defs>
        <path id="CMR17-38" d="M 1741 2289 
C 2144 2494 2554 2803 2554 3298 
C 2554 3884 1990 4224 1472 4224 
C 890 4224 378 3800 378 3215 
C 378 3054 416 2777 666 2533 
C 730 2469 998 2276 1171 2154 
C 883 2006 211 1652 211 945 
C 211 282 838 -128 1459 -128 
C 2144 -128 2720 366 2720 1022 
C 2720 1607 2330 1877 2074 2051 
L 1741 2289 
z
M 902 2855 
C 851 2887 595 3086 595 3388 
C 595 3781 998 4076 1459 4076 
C 1965 4076 2336 3716 2336 3298 
C 2336 2700 1670 2359 1638 2359 
C 1632 2359 1626 2359 1574 2398 
L 902 2855 
z
M 2080 1536 
C 2176 1466 2483 1253 2483 861 
C 2483 385 2010 25 1472 25 
C 890 25 448 443 448 951 
C 448 1459 838 1884 1280 2083 
L 2080 1536 
z
" transform="scale(0.015625)"/>
       </defs>
       <use xlink:href="#CMR17-30" transform="scale(0.996264)"/>
       <use xlink:href="#CMMI12-3a" transform="translate(45.690477 0) scale(0.996264)"/>
       <use xlink:href="#CMR17-30" transform="translate(72.787654 0) scale(0.996264)"/>
       <use xlink:href="#CMR17-38" transform="translate(118.478131 0) scale(0.996264)"/>
      </g>
     </g>
    </g>
    <g id="ytick_6">
     <g id="line2d_38">
      <g>
       <use xlink:href="#mefd7d147e5" x="128.03134" y="80.540491" style="stroke: #000000; stroke-width: 1.6"/>
      </g>
     </g>
     <g id="text_22">
      <!-- $\mathdefault{0.10}$ -->
      <g transform="translate(91.697618 86.628767) scale(0.2 -0.2)">
       <defs>
        <path id="CMR17-31" d="M 1702 4083 
C 1702 4217 1696 4224 1606 4224 
C 1357 3927 979 3833 621 3820 
C 602 3820 570 3820 563 3808 
C 557 3795 557 3782 557 3648 
C 755 3648 1088 3686 1344 3839 
L 1344 467 
C 1344 243 1331 166 781 166 
L 589 166 
L 589 0 
C 896 6 1216 12 1523 12 
C 1830 12 2150 6 2458 0 
L 2458 166 
L 2266 166 
C 1715 166 1702 236 1702 467 
L 1702 4083 
z
" transform="scale(0.015625)"/>
       </defs>
       <use xlink:href="#CMR17-30" transform="scale(0.996264)"/>
       <use xlink:href="#CMMI12-3a" transform="translate(45.690477 0) scale(0.996264)"/>
       <use xlink:href="#CMR17-31" transform="translate(72.787654 0) scale(0.996264)"/>
       <use xlink:href="#CMR17-30" transform="translate(118.478131 0) scale(0.996264)"/>
      </g>
     </g>
    </g>
    <g id="text_23">
     <!-- E6 Protein + Sildenafil -->
     <g transform="translate(83.26978 440.320788) rotate(-90) scale(0.2 -0.2)">
      <defs>
       <path id="CMTT12-36" d="M 762 2137 
C 826 2972 1382 3596 2010 3596 
C 2138 3596 2285 3577 2381 3478 
C 2355 3446 2330 3415 2330 3321 
C 2330 3203 2419 3072 2586 3072 
C 2752 3072 2848 3190 2848 3334 
C 2848 3667 2586 3968 2016 3968 
C 1178 3968 339 3196 339 1920 
C 339 383 1050 -64 1658 -64 
C 2342 -64 2950 479 2950 1244 
C 2950 1990 2394 2553 1728 2553 
C 1402 2553 1037 2432 762 2137 
z
M 1658 307 
C 973 307 832 1174 832 1180 
C 832 1187 838 1219 838 1238 
C 838 1276 813 1359 813 1436 
C 813 1806 1158 2176 1683 2176 
C 2182 2176 2534 1748 2534 1244 
C 2534 689 2118 307 1658 307 
z
" transform="scale(0.015625)"/>
       <path id="CMTT12-50" d="M 1030 1600 
L 1824 1600 
C 2566 1600 3014 2186 3014 2748 
C 3014 3336 2554 3904 1824 3904 
L 442 3904 
C 352 3904 179 3904 179 3718 
C 179 3532 352 3532 442 3532 
L 614 3532 
L 614 371 
L 442 371 
C 352 371 179 371 179 185 
C 179 0 352 0 442 0 
L 1203 0 
C 1293 0 1466 0 1466 185 
C 1466 371 1293 371 1203 371 
L 1030 371 
L 1030 1600 
z
M 1030 3532 
L 1709 3532 
C 2323 3532 2598 3090 2598 2755 
C 2598 2394 2310 1971 1709 1971 
L 1030 1971 
L 1030 3532 
z
" transform="scale(0.015625)"/>
       <path id="CMTT12-72" d="M 1382 1206 
C 1382 1966 1920 2419 2464 2419 
C 2496 2419 2534 2419 2566 2412 
C 2586 2183 2765 2163 2810 2163 
C 2957 2163 3059 2272 3059 2412 
C 3059 2687 2790 2790 2470 2790 
C 2042 2790 1677 2598 1382 2240 
L 1382 2489 
C 1382 2687 1344 2752 1126 2752 
L 480 2752 
C 390 2752 224 2752 224 2566 
C 224 2380 390 2380 480 2380 
L 966 2380 
L 966 371 
L 480 371 
C 390 371 224 371 224 185 
C 224 0 390 0 480 0 
L 2054 0 
C 2144 0 2310 0 2310 185 
C 2310 371 2144 371 2054 371 
L 1382 371 
L 1382 1206 
z
" transform="scale(0.015625)"/>
       <path id="CMTT12-6f" d="M 2918 1369 
C 2918 2179 2336 2816 1645 2816 
C 954 2816 371 2179 371 1369 
C 371 553 960 -64 1645 -64 
C 2330 -64 2918 553 2918 1369 
z
M 1645 307 
C 1184 307 787 799 787 1414 
C 787 2017 1197 2444 1645 2444 
C 2093 2444 2502 2017 2502 1414 
C 2502 793 2106 307 1645 307 
z
" transform="scale(0.015625)"/>
       <path id="CMTT12-74" d="M 1382 2380 
L 2419 2380 
C 2509 2380 2675 2380 2675 2566 
C 2675 2752 2509 2752 2419 2752 
L 1382 2752 
L 1382 3261 
C 1382 3373 1382 3520 1178 3520 
C 966 3520 966 3373 966 3261 
L 966 2752 
L 422 2752 
C 333 2752 160 2752 160 2566 
C 160 2380 326 2380 416 2380 
L 966 2380 
L 966 752 
C 966 153 1376 -64 1837 -64 
C 2182 -64 2816 108 2816 765 
C 2816 895 2816 1037 2605 1037 
C 2400 1037 2400 895 2400 759 
C 2394 371 2029 307 1882 307 
C 1382 307 1382 630 1382 785 
L 1382 2380 
z
" transform="scale(0.015625)"/>
       <path id="CMTT12-65" d="M 2662 1216 
C 2797 1216 2918 1216 2918 1452 
C 2918 2210 2496 2816 1696 2816 
C 954 2816 358 2171 358 1382 
C 358 566 1005 -64 1792 -64 
C 2618 -64 2918 508 2918 677 
C 2918 716 2906 858 2707 858 
C 2586 858 2547 813 2509 716 
C 2349 339 1933 307 1811 307 
C 1280 307 858 716 787 1216 
L 2662 1216 
z
M 794 1568 
C 877 2120 1293 2444 1696 2444 
C 2336 2444 2470 1892 2496 1568 
L 794 1568 
z
" transform="scale(0.015625)"/>
       <path id="CMTT12-69" d="M 1933 3615 
C 1933 3775 1805 3904 1645 3904 
C 1485 3904 1357 3775 1357 3615 
C 1357 3455 1485 3327 1645 3327 
C 1805 3327 1933 3455 1933 3615 
z
M 832 2752 
C 742 2752 576 2752 576 2566 
C 576 2380 742 2380 832 2380 
L 1517 2380 
L 1517 371 
L 787 371 
C 698 371 525 371 525 185 
C 525 0 698 0 787 0 
L 2566 0 
C 2656 0 2822 0 2822 185 
C 2822 371 2656 371 2566 371 
L 1933 371 
L 1933 2489 
C 1933 2687 1894 2752 1677 2752 
L 832 2752 
z
" transform="scale(0.015625)"/>
       <path id="CMTT12-6e" d="M 2675 1889 
C 2675 2521 2381 2816 1856 2816 
C 1421 2816 1139 2572 1030 2451 
C 1030 2687 1030 2777 774 2777 
L 352 2777 
C 262 2777 96 2777 96 2591 
C 96 2406 262 2406 352 2406 
L 614 2406 
L 614 371 
L 352 371 
C 262 371 96 371 96 185 
C 96 0 262 0 352 0 
L 1293 0 
C 1382 0 1549 0 1549 185 
C 1549 371 1382 371 1293 371 
L 1030 371 
L 1030 1540 
C 1030 2167 1466 2444 1811 2444 
C 2182 2444 2259 2231 2259 1863 
L 2259 371 
L 1997 371 
C 1907 371 1741 371 1741 185 
C 1741 0 1907 0 1997 0 
L 2938 0 
C 3027 0 3194 0 3194 185 
C 3194 371 3027 371 2938 371 
L 2675 371 
L 2675 1889 
z
" transform="scale(0.015625)"/>
       <path id="CMTT12-2b" d="M 1856 1759 
L 2765 1759 
C 2848 1759 3053 1759 3053 1964 
C 3053 2176 2854 2176 2765 2176 
L 1856 2176 
L 1856 3102 
C 1856 3186 1856 3392 1651 3392 
C 1440 3392 1440 3192 1440 3102 
L 1440 2176 
L 525 2176 
C 442 2176 237 2176 237 1971 
C 237 1759 435 1759 525 1759 
L 1440 1759 
L 1440 855 
C 1440 773 1440 569 1645 569 
C 1856 569 1856 767 1856 855 
L 1856 1759 
z
" transform="scale(0.015625)"/>
       <path id="CMTT12-53" d="M 2797 3724 
C 2797 3827 2797 3968 2618 3968 
C 2483 3968 2470 3916 2394 3647 
C 2080 3923 1715 3968 1491 3968 
C 813 3968 326 3482 326 2924 
C 326 2550 550 2303 589 2265 
C 858 1999 966 1974 1638 1815 
C 2118 1707 2227 1682 2387 1505 
C 2502 1365 2566 1207 2566 1029 
C 2566 687 2291 307 1786 307 
C 1235 307 774 541 742 1099 
C 736 1194 730 1302 538 1302 
C 326 1302 326 1181 326 1055 
L 326 179 
C 326 76 326 -64 506 -64 
C 640 -64 653 -13 730 256 
C 1082 -20 1523 -64 1786 -64 
C 2509 -64 2963 491 2963 1055 
C 2963 1498 2688 1777 2669 1802 
C 2413 2062 2291 2088 1645 2240 
C 1498 2278 1248 2335 1197 2348 
C 934 2443 723 2664 723 2950 
C 723 3286 1043 3596 1485 3596 
C 1965 3596 2291 3343 2374 2804 
C 2394 2683 2406 2601 2586 2601 
C 2797 2601 2797 2715 2797 2842 
L 2797 3724 
z
" transform="scale(0.015625)"/>
       <path id="CMTT12-6c" d="M 1856 3641 
C 1856 3839 1818 3904 1600 3904 
L 659 3904 
C 570 3904 403 3904 403 3718 
C 403 3532 570 3532 659 3532 
L 1440 3532 
L 1440 371 
L 659 371 
C 570 371 403 371 403 185 
C 403 0 570 0 659 0 
L 2637 0 
C 2726 0 2893 0 2893 185 
C 2893 371 2726 371 2637 371 
L 1856 371 
L 1856 3641 
z
" transform="scale(0.015625)"/>
       <path id="CMTT12-64" d="M 2675 3641 
C 2675 3839 2637 3904 2419 3904 
L 1997 3904 
C 1907 3904 1741 3904 1741 3718 
C 1741 3532 1907 3532 1997 3532 
L 2259 3532 
L 2259 2495 
C 2157 2598 1894 2816 1504 2816 
C 826 2816 237 2196 237 1372 
C 237 568 787 -64 1446 -64 
C 1862 -64 2138 185 2259 326 
C 2259 57 2259 -26 2515 -26 
L 2938 -26 
C 3027 -26 3194 -26 3194 160 
C 3194 346 3027 346 2938 346 
L 2675 346 
L 2675 3641 
z
M 2259 1209 
C 2259 843 1965 307 1485 307 
C 1024 307 653 784 653 1372 
C 653 2000 1088 2444 1542 2444 
C 1958 2444 2259 2059 2259 1719 
L 2259 1209 
z
" transform="scale(0.015625)"/>
       <path id="CMTT12-61" d="M 2650 1829 
C 2650 2306 2285 2816 1421 2816 
C 1152 2816 531 2816 531 2375 
C 531 2206 653 2112 794 2112 
C 832 2112 1043 2124 1050 2388 
C 1050 2419 1056 2425 1190 2438 
C 1267 2444 1350 2444 1427 2444 
C 1574 2444 1792 2444 2003 2287 
C 2234 2112 2234 1936 2234 1753 
C 1856 1740 1485 1715 1088 1587 
C 768 1478 358 1242 358 791 
C 358 320 762 -64 1357 -64 
C 1562 -64 1958 -32 2291 198 
C 2419 -13 2739 -26 2982 -26 
C 3136 -26 3290 -26 3290 160 
C 3290 347 3123 347 3034 347 
C 2867 347 2739 360 2650 400 
L 2650 1829 
z
M 2234 837 
C 2234 685 2234 545 1971 419 
C 1747 307 1446 307 1427 307 
C 1050 307 774 519 774 791 
C 774 1182 1459 1408 2234 1408 
L 2234 837 
z
" transform="scale(0.015625)"/>
       <path id="CMTT12-66" d="M 1581 2380 
L 2355 2380 
C 2445 2380 2611 2380 2611 2566 
C 2611 2752 2445 2752 2355 2752 
L 1581 2752 
L 1581 3081 
C 1581 3596 2029 3596 2234 3596 
C 2234 3583 2285 3339 2496 3339 
C 2598 3339 2746 3418 2746 3603 
C 2746 3968 2259 3968 2163 3968 
C 1677 3968 1165 3692 1165 3108 
L 1165 2752 
L 531 2752 
C 442 2752 269 2752 269 2566 
C 269 2380 435 2380 525 2380 
L 1165 2380 
L 1165 371 
L 557 371 
C 467 371 301 371 301 185 
C 301 0 467 0 557 0 
L 2189 0 
C 2278 0 2445 0 2445 185 
C 2445 371 2278 371 2189 371 
L 1581 371 
L 1581 2380 
z
" transform="scale(0.015625)"/>
      </defs>
      <use xlink:href="#CMTT12-45" transform="scale(0.996264)"/>
      <use xlink:href="#CMTT12-36" transform="translate(51.266111 0) scale(0.996264)"/>
      <use xlink:href="#CMTT12-50" transform="translate(153.798333 0) scale(0.996264)"/>
      <use xlink:href="#CMTT12-72" transform="translate(205.064443 0) scale(0.996264)"/>
      <use xlink:href="#CMTT12-6f" transform="translate(256.330554 0) scale(0.996264)"/>
      <use xlink:href="#CMTT12-74" transform="translate(307.596665 0) scale(0.996264)"/>
      <use xlink:href="#CMTT12-65" transform="translate(358.862776 0) scale(0.996264)"/>
      <use xlink:href="#CMTT12-69" transform="translate(410.128887 0) scale(0.996264)"/>
      <use xlink:href="#CMTT12-6e" transform="translate(461.394998 0) scale(0.996264)"/>
      <use xlink:href="#CMTT12-2b" transform="translate(563.927219 0) scale(0.996264)"/>
      <use xlink:href="#CMTT12-53" transform="translate(666.459441 0) scale(0.996264)"/>
      <use xlink:href="#CMTT12-69" transform="translate(717.725552 0) scale(0.996264)"/>
      <use xlink:href="#CMTT12-6c" transform="translate(768.991663 0) scale(0.996264)"/>
      <use xlink:href="#CMTT12-64" transform="translate(820.257774 0) scale(0.996264)"/>
      <use xlink:href="#CMTT12-65" transform="translate(871.523884 0) scale(0.996264)"/>
      <use xlink:href="#CMTT12-6e" transform="translate(922.789995 0) scale(0.996264)"/>
      <use xlink:href="#CMTT12-61" transform="translate(974.056106 0) scale(0.996264)"/>
      <use xlink:href="#CMTT12-66" transform="translate(1025.322217 0) scale(0.996264)"/>
      <use xlink:href="#CMTT12-69" transform="translate(1076.588328 0) scale(0.996264)"/>
      <use xlink:href="#CMTT12-6c" transform="translate(1127.854439 0) scale(0.996264)"/>
     </g>
    </g>
   </g>
   <g id="patch_19">
    <path d="M 128.03134 617.005604 
L 128.03134 27.811862 
" style="fill: none; stroke: #000000; stroke-width: 0.8; stroke-linejoin: miter; stroke-linecap: square"/>
   </g>
   <g id="patch_20">
    <path d="M 1393.748912 617.005604 
L 1393.748912 27.811862 
" style="fill: none; stroke: #000000; stroke-width: 0.8; stroke-linejoin: miter; stroke-linecap: square"/>
   </g>
   <g id="patch_21">
    <path d="M 128.03134 617.005604 
L 1393.748912 617.005604 
" style="fill: none; stroke: #000000; stroke-width: 0.8; stroke-linejoin: miter; stroke-linecap: square"/>
   </g>
   <g id="patch_22">
    <path d="M 128.03134 27.811862 
L 1393.748912 27.811862 
" style="fill: none; stroke: #000000; stroke-width: 0.8; stroke-linejoin: miter; stroke-linecap: square"/>
   </g>
   <g id="text_24">
    <!-- Hydrogen Bond Occupancies -->
    <g transform="translate(607.091793 21.811862) scale(0.24 -0.24)">
     <defs>
      <path id="CMTT12-79" d="M 2714 2380 
L 2880 2380 
C 2970 2380 3142 2380 3142 2566 
C 3142 2752 2970 2752 2880 2752 
L 2176 2752 
C 2086 2752 1914 2752 1914 2566 
C 1914 2380 2086 2380 2176 2380 
L 2336 2380 
C 2157 1854 1792 783 1702 418 
L 1696 418 
C 1664 559 1638 629 1574 803 
L 979 2380 
L 1126 2380 
C 1216 2380 1389 2380 1389 2566 
C 1389 2752 1216 2752 1126 2752 
L 422 2752 
C 333 2752 160 2752 160 2566 
C 160 2380 333 2380 422 2380 
L 595 2380 
L 1491 72 
C 1517 7 1517 -5 1517 -12 
C 1517 -25 1350 -583 1254 -762 
C 1216 -826 1056 -1127 749 -1095 
C 755 -1076 774 -1037 774 -967 
C 774 -820 672 -717 525 -717 
C 365 -717 269 -826 269 -973 
C 269 -1216 474 -1472 794 -1472 
C 1414 -1472 1690 -647 1709 -595 
L 2714 2380 
z
" transform="scale(0.015625)"/>
      <path id="CMTT12-67" d="M 1216 384 
C 1139 384 845 384 845 741 
C 845 864 864 889 890 940 
C 1018 851 1229 768 1459 768 
C 2042 768 2490 1236 2490 1791 
C 2490 1953 2451 2153 2317 2367 
C 2483 2457 2637 2476 2733 2483 
C 2771 2283 2957 2276 2963 2276 
C 3040 2276 3200 2328 3200 2521 
C 3200 2643 3104 2854 2746 2854 
C 2630 2854 2342 2828 2074 2617 
C 1862 2764 1645 2816 1466 2816 
C 883 2816 435 2347 435 1791 
C 435 1649 467 1404 646 1171 
C 525 992 506 800 506 721 
C 506 489 614 307 666 249 
C 314 57 186 -289 186 -538 
C 186 -1069 832 -1472 1645 -1472 
C 2458 -1472 3104 -1076 3104 -538 
C 3104 384 1971 384 1760 384 
L 1216 384 
z
M 1459 1126 
C 1139 1126 851 1410 851 1791 
C 851 2173 1146 2457 1459 2457 
C 1798 2457 2074 2160 2074 1791 
C 2074 1423 1798 1126 1459 1126 
z
M 1645 -1114 
C 1018 -1114 550 -833 550 -538 
C 550 -442 582 -218 819 -71 
C 966 25 1030 25 1472 25 
C 2035 25 2739 25 2739 -538 
C 2739 -833 2272 -1114 1645 -1114 
z
" transform="scale(0.015625)"/>
      <path id="CMTT12-42" d="M 422 3904 
C 333 3904 166 3904 166 3718 
C 166 3532 339 3532 429 3532 
L 582 3532 
L 582 371 
L 429 371 
C 339 371 166 371 166 185 
C 166 0 339 0 422 0 
L 1939 0 
C 2650 0 3027 564 3027 1071 
C 3027 1528 2714 1945 2208 2054 
C 2528 2156 2893 2461 2893 2918 
C 2893 3380 2515 3904 1811 3904 
L 422 3904 
z
M 998 2227 
L 998 3532 
L 1792 3532 
C 2323 3532 2477 3139 2477 2911 
C 2477 2613 2227 2227 1690 2227 
L 998 2227 
z
M 998 371 
L 998 1856 
L 1837 1856 
C 2483 1856 2611 1303 2611 1084 
C 2611 769 2368 371 1798 371 
L 998 371 
z
" transform="scale(0.015625)"/>
      <path id="CMTT12-63" d="M 2918 676 
C 2918 844 2758 844 2707 844 
C 2560 844 2534 793 2502 702 
C 2362 346 2048 307 1894 307 
C 1350 307 890 767 890 1369 
C 890 1699 1075 2444 1914 2444 
C 2086 2444 2221 2431 2278 2425 
C 2323 2412 2330 2405 2330 2373 
C 2349 2107 2547 2101 2586 2101 
C 2726 2101 2848 2198 2848 2373 
C 2848 2816 2202 2816 1920 2816 
C 826 2816 474 1913 474 1369 
C 474 579 1069 -64 1837 -64 
C 2694 -64 2918 572 2918 676 
z
" transform="scale(0.015625)"/>
      <path id="CMTT12-75" d="M 2675 2489 
C 2675 2687 2637 2752 2419 2752 
L 1997 2752 
C 1907 2752 1741 2752 1741 2566 
C 1741 2380 1907 2380 1997 2380 
L 2259 2380 
L 2259 979 
C 2259 449 1824 307 1536 307 
C 1030 307 1030 539 1030 740 
L 1030 2489 
C 1030 2687 992 2752 774 2752 
L 352 2752 
C 262 2752 96 2752 96 2566 
C 96 2380 262 2380 352 2380 
L 614 2380 
L 614 707 
C 614 115 998 -64 1491 -64 
C 1882 -64 2125 96 2253 204 
C 2253 -26 2406 -26 2515 -26 
L 2938 -26 
C 3027 -26 3194 -26 3194 160 
C 3194 345 3027 345 2938 345 
L 2675 345 
L 2675 2489 
z
" transform="scale(0.015625)"/>
      <path id="CMTT12-70" d="M 1293 -1408 
C 1382 -1408 1549 -1408 1549 -1223 
C 1549 -1037 1382 -1037 1293 -1037 
L 1030 -1037 
L 1030 294 
C 1184 121 1421 -64 1779 -64 
C 2458 -64 3053 546 3053 1366 
C 3053 2161 2515 2790 1850 2790 
C 1382 2790 1088 2508 1030 2444 
C 1030 2655 1030 2752 774 2752 
L 352 2752 
C 262 2752 96 2752 96 2566 
C 96 2380 262 2380 352 2380 
L 614 2380 
L 614 -1037 
L 352 -1037 
C 262 -1037 96 -1037 96 -1223 
C 96 -1408 262 -1408 352 -1408 
L 1293 -1408 
z
M 1030 1689 
C 1030 2057 1389 2419 1805 2419 
C 2266 2419 2637 1948 2637 1366 
C 2637 746 2202 307 1747 307 
C 1267 307 1030 856 1030 1179 
L 1030 1689 
z
" transform="scale(0.015625)"/>
      <path id="CMTT12-73" d="M 2688 2572 
C 2688 2675 2688 2816 2509 2816 
C 2355 2816 2317 2668 2317 2662 
C 2061 2816 1766 2816 1638 2816 
C 595 2816 454 2282 454 2062 
C 454 1797 608 1615 826 1492 
C 1030 1376 1216 1343 1741 1259 
C 1990 1214 2502 1129 2502 773 
C 2502 533 2285 307 1690 307 
C 1280 307 1011 469 877 935 
C 845 1026 826 1097 666 1097 
C 454 1097 454 974 454 844 
L 454 179 
C 454 76 454 -64 634 -64 
C 710 -64 768 -64 864 198 
C 1158 -45 1491 -64 1690 -64 
C 2874 -64 2874 708 2874 773 
C 2874 1447 2080 1583 1773 1628 
C 1210 1725 826 1790 826 2062 
C 826 2237 1024 2444 1626 2444 
C 2234 2444 2259 2153 2272 1984 
C 2285 1855 2400 1835 2477 1835 
C 2688 1835 2688 1952 2688 2082 
L 2688 2572 
z
" transform="scale(0.015625)"/>
     </defs>
     <use xlink:href="#CMTT12-48" transform="scale(0.996264)"/>
     <use xlink:href="#CMTT12-79" transform="translate(51.266111 0) scale(0.996264)"/>
     <use xlink:href="#CMTT12-64" transform="translate(102.532222 0) scale(0.996264)"/>
     <use xlink:href="#CMTT12-72" transform="translate(153.798333 0) scale(0.996264)"/>
     <use xlink:href="#CMTT12-6f" transform="translate(205.064443 0) scale(0.996264)"/>
     <use xlink:href="#CMTT12-67" transform="translate(256.330554 0) scale(0.996264)"/>
     <use xlink:href="#CMTT12-65" transform="translate(307.596665 0) scale(0.996264)"/>
     <use xlink:href="#CMTT12-6e" transform="translate(358.862776 0) scale(0.996264)"/>
     <use xlink:href="#CMTT12-42" transform="translate(461.394998 0) scale(0.996264)"/>
     <use xlink:href="#CMTT12-6f" transform="translate(512.661108 0) scale(0.996264)"/>
     <use xlink:href="#CMTT12-6e" transform="translate(563.927219 0) scale(0.996264)"/>
     <use xlink:href="#CMTT12-64" transform="translate(615.19333 0) scale(0.996264)"/>
     <use xlink:href="#CMTT12-4f" transform="translate(717.725552 0) scale(0.996264)"/>
     <use xlink:href="#CMTT12-63" transform="translate(768.991663 0) scale(0.996264)"/>
     <use xlink:href="#CMTT12-63" transform="translate(820.257774 0) scale(0.996264)"/>
     <use xlink:href="#CMTT12-75" transform="translate(871.523884 0) scale(0.996264)"/>
     <use xlink:href="#CMTT12-70" transform="translate(922.789995 0) scale(0.996264)"/>
     <use xlink:href="#CMTT12-61" transform="translate(974.056106 0) scale(0.996264)"/>
     <use xlink:href="#CMTT12-6e" transform="translate(1025.322217 0) scale(0.996264)"/>
     <use xlink:href="#CMTT12-63" transform="translate(1076.588328 0) scale(0.996264)"/>
     <use xlink:href="#CMTT12-69" transform="translate(1127.854439 0) scale(0.996264)"/>
     <use xlink:href="#CMTT12-65" transform="translate(1179.12055 0) scale(0.996264)"/>
     <use xlink:href="#CMTT12-73" transform="translate(1230.38666 0) scale(0.996264)"/>
    </g>
   </g>
  </g>
 </g>
 <defs>
  <clipPath id="p671cc041ed">
   <rect x="128.03134" y="27.811862" width="1265.717572" height="589.193742"/>
  </clipPath>
 </defs>
</svg>
